<svg xmlns="http://www.w3.org/2000/svg" viewBox="0 0 600 800" width="600" height="800">
<defs><linearGradient id="sk" x1="0" y1="0" x2="0" y2="1"><stop offset="0" stop-color="#f4e6d8"/><stop offset="1" stop-color="#e8c9b6"/></linearGradient><linearGradient id="wt" x1="0" y1="0" x2="0" y2="1"><stop offset="0" stop-color="#8f9a7a"/><stop offset="1" stop-color="#2d3027"/></linearGradient><radialGradient id="sg" cx=".5" cy=".5" r=".5"><stop offset="0" stop-color="#fbefe2" stop-opacity=".55"/><stop offset="1" stop-color="#fbefe2" stop-opacity="0"/></radialGradient><linearGradient id="hz" x1="0" y1="0" x2="0" y2="1"><stop offset="0" stop-color="#e8c9b6" stop-opacity="0"/><stop offset=".6" stop-color="#e8c9b6" stop-opacity=".55"/><stop offset="1" stop-color="#e8c9b6" stop-opacity="0"/></linearGradient><radialGradient id="vg" cx=".5" cy=".42" r=".75"><stop offset=".6" stop-color="#000" stop-opacity="0"/><stop offset="1" stop-color="#000" stop-opacity=".22"/></radialGradient><filter id="gr"><feTurbulence type="fractalNoise" baseFrequency=".9" numOctaves="2" seed="54"/><feColorMatrix values="0 0 0 0 0  0 0 0 0 0  0 0 0 0 0  0 0 0 .07 0"/><feComposite in2="SourceGraphic" operator="in"/></filter></defs>
<rect width="600" height="800" fill="url(#sk)"/>
<circle cx="466" cy="176" r="130" fill="url(#sg)"/>
<circle cx="466" cy="176" r="41" fill="#fbefe2" opacity=".92"/>
<ellipse cx="191" cy="281" rx="110" ry="18" fill="#fff" opacity=".35"/><ellipse cx="224" cy="273" rx="55" ry="15" fill="#fff" opacity=".3"/>
<ellipse cx="149" cy="192" rx="114" ry="18" fill="#fff" opacity=".35"/><ellipse cx="183" cy="184" rx="57" ry="16" fill="#fff" opacity=".3"/>
<path d="M387,316 q6,-6 12,0 q6,-6 12,0" fill="none" stroke="#2d3027" stroke-width="2" opacity=".55"/>
<path d="M225,235 q6,-6 12,0 q6,-6 12,0" fill="none" stroke="#2d3027" stroke-width="2" opacity=".55"/>
<path d="M441,165 q6,-6 12,0 q6,-6 12,0" fill="none" stroke="#2d3027" stroke-width="2" opacity=".55"/>
<path d="M352,168 q5,-5 10,0 q5,-5 10,0" fill="none" stroke="#2d3027" stroke-width="2" opacity=".55"/>
<path d="M144,246 q7,-7 13,0 q7,-7 13,0" fill="none" stroke="#2d3027" stroke-width="2" opacity=".55"/>
<path d="M-20,800 L-20,356 L20,355 L60,342 L100,335 L140,341 L180,342 L220,329 L260,336 L300,343 L340,344 L380,342 L420,355 L460,346 L500,356 L540,350 L580,336 L620,336 L640,800 Z" fill="#c9b3a8" opacity=".55"/>
<rect x="0" y="330" width="600" height="120" fill="url(#hz)"/>
<path d="M-20,800 L-20,444 L10,455 L40,462 L70,456 L100,443 L130,453 L160,442 L190,447 L220,448 L250,452 L280,446 L310,450 L340,440 L370,434 L400,441 L430,438 L460,444 L490,445 L520,435 L550,432 L580,434 L610,443 L640,800 Z" fill="#8f9a7a"/>
<rect x="0" y="520" width="600" height="280" fill="url(#wt)"/>
<rect x="-10" y="389" width="80" height="131" fill="#efe9dc"/><path d="M-16,389 h92 l-10,-16 h-72 z" fill="#2d3027"/><rect x="16" y="423" width="16" height="20" fill="#2d3027" opacity=".7"/>
<rect x="75" y="418" width="80" height="102" fill="#efe9dc"/><path d="M69,418 h92 l-10,-16 h-72 z" fill="#2d3027"/><rect x="101" y="452" width="16" height="20" fill="#2d3027" opacity=".7"/>
<rect x="160" y="407" width="80" height="113" fill="#efe9dc"/><path d="M154,407 h92 l-10,-16 h-72 z" fill="#2d3027"/><rect x="186" y="441" width="16" height="20" fill="#2d3027" opacity=".7"/>
<rect x="360" y="427" width="80" height="93" fill="#efe9dc"/><path d="M354,427 h92 l-10,-16 h-72 z" fill="#2d3027"/><rect x="386" y="461" width="16" height="20" fill="#2d3027" opacity=".7"/>
<rect x="445" y="423" width="80" height="97" fill="#efe9dc"/><path d="M439,423 h92 l-10,-16 h-72 z" fill="#2d3027"/><rect x="471" y="457" width="16" height="20" fill="#2d3027" opacity=".7"/>
<rect x="530" y="397" width="80" height="123" fill="#efe9dc"/><path d="M524,397 h92 l-10,-16 h-72 z" fill="#2d3027"/><rect x="556" y="431" width="16" height="20" fill="#2d3027" opacity=".7"/>
<path d="M190,528 Q300,430 410,528 L392,528 Q300,456 208,528 Z" fill="#b8b0a2"/><path d="M190,528 Q300,610 410,528" fill="none" stroke="#b8b0a2" stroke-width="4" opacity=".4"/>
<path d="M250,590 h70 l-10,8 h-50 z" fill="#2d3027"/>
<circle cx="40" cy="360" r="7" fill="#c8432f" opacity=".85"/>
<circle cx="140" cy="360" r="7" fill="#c8432f" opacity=".85"/>
<circle cx="240" cy="360" r="7" fill="#c8432f" opacity=".85"/>
<circle cx="340" cy="360" r="7" fill="#c8432f" opacity=".85"/>
<circle cx="440" cy="360" r="7" fill="#c8432f" opacity=".85"/>
<circle cx="540" cy="360" r="7" fill="#c8432f" opacity=".85"/>
<path d="M-20,800 L-20,603 Q300.0,585 620,600 L620,800 Z" fill="#2d3027"/>
<rect x="249" y="640" width="172" height="1.5" fill="#fff" opacity=".05"/>
<rect x="293" y="664" width="177" height="1.5" fill="#fff" opacity=".05"/>
<rect x="80" y="688" width="141" height="1.5" fill="#fff" opacity=".05"/>
<rect x="113" y="712" width="138" height="1.5" fill="#fff" opacity=".05"/>
<rect x="15" y="736" width="169" height="1.5" fill="#fff" opacity=".05"/>
<rect x="368" y="760" width="192" height="1.5" fill="#fff" opacity=".05"/>
<path d="M128,601 q-1.8,-13 -3.5,-26" fill="none" stroke="#2d3027" stroke-width="1.7" stroke-linecap="round"/>
<path d="M256,607 q-2.7,-5 -5.5,-10" fill="none" stroke="#2d3027" stroke-width="1.3" stroke-linecap="round"/>
<path d="M129,608 q-2.3,-8 -4.6,-16" fill="none" stroke="#2d3027" stroke-width="1.2" stroke-linecap="round"/>
<path d="M535,601 q0.3,-12 0.7,-23" fill="none" stroke="#2d3027" stroke-width="2.4" stroke-linecap="round"/>
<path d="M9,603 q-2.1,-11 -4.3,-23" fill="none" stroke="#2d3027" stroke-width="2.3" stroke-linecap="round"/>
<path d="M350,601 q-2.3,-11 -4.6,-23" fill="none" stroke="#2d3027" stroke-width="2.2" stroke-linecap="round"/>
<path d="M30,603 q2.5,-11 4.9,-22" fill="none" stroke="#2d3027" stroke-width="1.4" stroke-linecap="round"/>
<path d="M120,610 q2.9,-8 5.8,-16" fill="none" stroke="#2d3027" stroke-width="1.5" stroke-linecap="round"/>
<path d="M599,603 q0.4,-11 0.9,-23" fill="none" stroke="#2d3027" stroke-width="1.8" stroke-linecap="round"/>
<path d="M263,613 q1.5,-13 3.0,-25" fill="none" stroke="#2d3027" stroke-width="2.3" stroke-linecap="round"/>
<path d="M184,612 q-0.8,-5 -1.6,-10" fill="none" stroke="#2d3027" stroke-width="1.4" stroke-linecap="round"/>
<path d="M482,614 q-3.0,-12 -6.0,-24" fill="none" stroke="#2d3027" stroke-width="1.6" stroke-linecap="round"/>
<path d="M504,601 q0.4,-6 0.7,-11" fill="none" stroke="#2d3027" stroke-width="1.7" stroke-linecap="round"/>
<path d="M56,611 q-0.3,-4 -0.6,-9" fill="none" stroke="#2d3027" stroke-width="1.7" stroke-linecap="round"/>
<path d="M33,600 q-1.1,-9 -2.1,-17" fill="none" stroke="#2d3027" stroke-width="1.9" stroke-linecap="round"/>
<path d="M564,602 q1.5,-8 3.0,-17" fill="none" stroke="#2d3027" stroke-width="1.7" stroke-linecap="round"/>
<path d="M81,605 q-1.6,-12 -3.3,-23" fill="none" stroke="#2d3027" stroke-width="2.1" stroke-linecap="round"/>
<path d="M544,609 q-0.6,-5 -1.2,-9" fill="none" stroke="#2d3027" stroke-width="1.5" stroke-linecap="round"/>
<path d="M286,609 q-2.9,-13 -5.8,-26" fill="none" stroke="#2d3027" stroke-width="2.1" stroke-linecap="round"/>
<path d="M378,604 q-1.3,-10 -2.6,-20" fill="none" stroke="#2d3027" stroke-width="1.7" stroke-linecap="round"/>
<path d="M170,609 q2.0,-4 4.1,-9" fill="none" stroke="#2d3027" stroke-width="2.2" stroke-linecap="round"/>
<path d="M80,610 q2.1,-7 4.2,-13" fill="none" stroke="#2d3027" stroke-width="1.8" stroke-linecap="round"/>
<path d="M546,606 q-1.3,-9 -2.5,-18" fill="none" stroke="#2d3027" stroke-width="2.2" stroke-linecap="round"/>
<path d="M287,605 q-2.0,-12 -3.9,-24" fill="none" stroke="#2d3027" stroke-width="2.1" stroke-linecap="round"/>
<path d="M19,602 q-3.0,-4 -5.9,-8" fill="none" stroke="#2d3027" stroke-width="2.0" stroke-linecap="round"/>
<path d="M203,601 q-1.9,-6 -3.7,-12" fill="none" stroke="#2d3027" stroke-width="2.4" stroke-linecap="round"/>
<path d="M386,609 q-2.2,-8 -4.5,-17" fill="none" stroke="#2d3027" stroke-width="1.8" stroke-linecap="round"/>
<path d="M356,613 q-2.7,-7 -5.5,-15" fill="none" stroke="#2d3027" stroke-width="1.7" stroke-linecap="round"/>
<path d="M372,613 q-1.0,-11 -2.0,-21" fill="none" stroke="#2d3027" stroke-width="1.4" stroke-linecap="round"/>
<path d="M355,607 q-0.2,-4 -0.3,-8" fill="none" stroke="#2d3027" stroke-width="1.9" stroke-linecap="round"/>
<path d="M358,601 q2.5,-6 4.9,-11" fill="none" stroke="#2d3027" stroke-width="2.3" stroke-linecap="round"/>
<path d="M125,609 q-2.3,-5 -4.5,-9" fill="none" stroke="#2d3027" stroke-width="2.3" stroke-linecap="round"/>
<path d="M135,611 q-0.3,-11 -0.7,-23" fill="none" stroke="#2d3027" stroke-width="2.0" stroke-linecap="round"/>
<path d="M148,605 q1.9,-5 3.8,-10" fill="none" stroke="#2d3027" stroke-width="1.7" stroke-linecap="round"/>
<path d="M312,610 q0.3,-4 0.7,-8" fill="none" stroke="#2d3027" stroke-width="1.9" stroke-linecap="round"/>
<path d="M4,606 q0.0,-8 0.0,-16" fill="none" stroke="#2d3027" stroke-width="1.6" stroke-linecap="round"/>
<path d="M69,614 q-0.7,-8 -1.4,-15" fill="none" stroke="#2d3027" stroke-width="1.4" stroke-linecap="round"/>
<path d="M-6,600 q-1.3,-9 -2.7,-19" fill="none" stroke="#2d3027" stroke-width="1.9" stroke-linecap="round"/>
<path d="M236,607 q-2.3,-11 -4.6,-22" fill="none" stroke="#2d3027" stroke-width="1.5" stroke-linecap="round"/>
<path d="M153,613 q0.7,-8 1.4,-16" fill="none" stroke="#2d3027" stroke-width="2.4" stroke-linecap="round"/>
<path d="M347,608 q-1.9,-11 -3.7,-21" fill="none" stroke="#2d3027" stroke-width="1.6" stroke-linecap="round"/>
<path d="M50,613 q-2.1,-9 -4.2,-18" fill="none" stroke="#2d3027" stroke-width="2.2" stroke-linecap="round"/>
<path d="M367,605 q2.9,-6 5.7,-11" fill="none" stroke="#2d3027" stroke-width="1.9" stroke-linecap="round"/>
<path d="M317,608 q2.8,-6 5.6,-12" fill="none" stroke="#2d3027" stroke-width="1.9" stroke-linecap="round"/>
<path d="M548,608 q0.3,-10 0.6,-19" fill="none" stroke="#2d3027" stroke-width="2.2" stroke-linecap="round"/>
<path d="M345,607 q-0.2,-4 -0.4,-9" fill="none" stroke="#2d3027" stroke-width="1.3" stroke-linecap="round"/>
<path d="M115,611 q0.8,-6 1.6,-12" fill="none" stroke="#2d3027" stroke-width="2.1" stroke-linecap="round"/>
<path d="M-2,612 q-1.0,-9 -2.0,-19" fill="none" stroke="#2d3027" stroke-width="2.1" stroke-linecap="round"/>
<path d="M7,600 q3.0,-9 5.9,-18" fill="none" stroke="#2d3027" stroke-width="1.6" stroke-linecap="round"/>
<path d="M381,609 q-2.1,-5 -4.2,-9" fill="none" stroke="#2d3027" stroke-width="1.5" stroke-linecap="round"/>
<path d="M219,613 q-1.2,-13 -2.3,-25" fill="none" stroke="#2d3027" stroke-width="2.3" stroke-linecap="round"/>
<path d="M284,612 q0.4,-5 0.8,-10" fill="none" stroke="#2d3027" stroke-width="1.4" stroke-linecap="round"/>
<path d="M532,612 q-0.5,-6 -1.0,-11" fill="none" stroke="#2d3027" stroke-width="2.1" stroke-linecap="round"/>
<path d="M215,601 q-0.6,-11 -1.3,-23" fill="none" stroke="#2d3027" stroke-width="1.8" stroke-linecap="round"/>
<path d="M41,611 q-0.9,-7 -1.9,-14" fill="none" stroke="#2d3027" stroke-width="2.4" stroke-linecap="round"/>
<path d="M542,605 q-1.7,-5 -3.5,-10" fill="none" stroke="#2d3027" stroke-width="2.1" stroke-linecap="round"/>
<path d="M108,600 q1.2,-12 2.5,-25" fill="none" stroke="#2d3027" stroke-width="1.4" stroke-linecap="round"/>
<path d="M183,607 q1.0,-12 2.0,-24" fill="none" stroke="#2d3027" stroke-width="1.9" stroke-linecap="round"/>
<path d="M441,608 q-1.8,-5 -3.6,-10" fill="none" stroke="#2d3027" stroke-width="1.7" stroke-linecap="round"/>
<path d="M173,607 q0.4,-7 0.7,-14" fill="none" stroke="#2d3027" stroke-width="2.3" stroke-linecap="round"/>
<path d="M520,612 q-2.3,-10 -4.7,-19" fill="none" stroke="#2d3027" stroke-width="2.1" stroke-linecap="round"/>
<path d="M61,610 q-1.0,-8 -1.9,-16" fill="none" stroke="#2d3027" stroke-width="1.6" stroke-linecap="round"/>
<path d="M358,606 q-2.2,-6 -4.4,-12" fill="none" stroke="#2d3027" stroke-width="2.3" stroke-linecap="round"/>
<path d="M223,605 q3.0,-8 6.0,-16" fill="none" stroke="#2d3027" stroke-width="1.3" stroke-linecap="round"/>
<path d="M603,611 q-0.6,-6 -1.3,-12" fill="none" stroke="#2d3027" stroke-width="1.5" stroke-linecap="round"/>
<path d="M516,613 q1.8,-7 3.6,-15" fill="none" stroke="#2d3027" stroke-width="1.9" stroke-linecap="round"/>
<path d="M82,607 q-1.7,-13 -3.4,-26" fill="none" stroke="#2d3027" stroke-width="2.1" stroke-linecap="round"/>
<path d="M433,602 q0.6,-5 1.2,-9" fill="none" stroke="#2d3027" stroke-width="1.6" stroke-linecap="round"/>
<path d="M149,612 q0.6,-13 1.3,-26" fill="none" stroke="#2d3027" stroke-width="1.6" stroke-linecap="round"/>
<path d="M93,600 q1.7,-7 3.4,-15" fill="none" stroke="#2d3027" stroke-width="1.7" stroke-linecap="round"/>
<rect width="600" height="800" fill="url(#vg)"/>
<rect width="600" height="800" filter="url(#gr)" opacity=".9"/></svg>