<svg xmlns="http://www.w3.org/2000/svg" viewBox="0 0 600 800" width="600" height="800">
<defs><linearGradient id="sk" x1="0" y1="0" x2="0" y2="1"><stop offset="0" stop-color="#f4e6d8"/><stop offset="1" stop-color="#e8c9b6"/></linearGradient><linearGradient id="wt" x1="0" y1="0" x2="0" y2="1"><stop offset="0" stop-color="#8f9a7a"/><stop offset="1" stop-color="#2d3027"/></linearGradient><filter id="gr"><feTurbulence type="fractalNoise" baseFrequency=".9" numOctaves="2" seed="59"/><feColorMatrix values="0 0 0 0 0  0 0 0 0 0  0 0 0 0 0  0 0 0 .07 0"/><feComposite in2="SourceGraphic" operator="in"/></filter></defs>
<rect width="600" height="800" fill="url(#sk)"/>
<circle cx="163" cy="148" r="43" fill="#fbefe2" opacity=".9"/>
<ellipse cx="500" cy="93" rx="133" ry="21" fill="#fff" opacity=".35"/><ellipse cx="540" cy="85" rx="66" ry="19" fill="#fff" opacity=".3"/>
<ellipse cx="560" cy="103" rx="142" ry="23" fill="#fff" opacity=".35"/><ellipse cx="602" cy="95" rx="71" ry="20" fill="#fff" opacity=".3"/>
<ellipse cx="99" cy="173" rx="128" ry="20" fill="#fff" opacity=".35"/><ellipse cx="138" cy="165" rx="64" ry="18" fill="#fff" opacity=".3"/>
<ellipse cx="588" cy="114" rx="84" ry="13" fill="#fff" opacity=".35"/><ellipse cx="613" cy="106" rx="42" ry="12" fill="#fff" opacity=".3"/>
<path d="M322,296 q5,-5 9,0 q5,-5 9,0" fill="none" stroke="#2d3027" stroke-width="2" opacity=".55"/>
<path d="M206,220 q5,-5 10,0 q5,-5 10,0" fill="none" stroke="#2d3027" stroke-width="2" opacity=".55"/>
<path d="M-20,800 L-20,347 L20,347 L60,335 L100,341 L140,339 L180,344 L220,343 L260,354 L300,358 L340,366 L380,352 L420,366 L460,373 L500,375 L540,387 L580,374 L620,364 L640,800 Z" fill="#c9b3a8" opacity=".55"/>
<path d="M-20,800 L-20,439 L10,451 L40,457 L70,468 L100,471 L130,471 L160,471 L190,471 L220,471 L250,459 L280,466 L310,471 L340,471 L370,471 L400,465 L430,453 L460,449 L490,449 L520,440 L550,443 L580,434 L610,425 L640,800 Z" fill="#8f9a7a"/>
<path d="M-20,800 L-20,300 L230,330 L250,800 Z" fill="#4f6233"/><path d="M620,800 L620,310 L370,330 L350,800 Z" fill="#4f6233"/>
<rect x="250" y="330" width="100" height="250" fill="#e9eef0"/>
<rect x="255" y="344" width="2" height="193" fill="#c9d6dc" opacity=".8"/>
<rect x="262" y="343" width="2" height="169" fill="#c9d6dc" opacity=".8"/>
<rect x="269" y="345" width="2" height="157" fill="#c9d6dc" opacity=".8"/>
<rect x="276" y="349" width="2" height="126" fill="#c9d6dc" opacity=".8"/>
<rect x="283" y="378" width="2" height="208" fill="#c9d6dc" opacity=".8"/>
<rect x="290" y="361" width="2" height="122" fill="#c9d6dc" opacity=".8"/>
<rect x="297" y="335" width="2" height="194" fill="#c9d6dc" opacity=".8"/>
<rect x="304" y="349" width="2" height="123" fill="#c9d6dc" opacity=".8"/>
<rect x="311" y="379" width="2" height="211" fill="#c9d6dc" opacity=".8"/>
<rect x="318" y="374" width="2" height="128" fill="#c9d6dc" opacity=".8"/>
<rect x="325" y="379" width="2" height="159" fill="#c9d6dc" opacity=".8"/>
<rect x="332" y="350" width="2" height="146" fill="#c9d6dc" opacity=".8"/>
<rect x="339" y="346" width="2" height="132" fill="#c9d6dc" opacity=".8"/>
<rect x="346" y="368" width="2" height="122" fill="#c9d6dc" opacity=".8"/>
<ellipse cx="300" cy="585" rx="150" ry="26" fill="#f4f6f8" opacity=".85"/>
<path d="M-20,800 L-20,594 Q300.0,567 620,597 L620,800 Z" fill="#2d3027"/>
<rect x="386" y="640" width="170" height="1.5" fill="#fff" opacity=".05"/>
<rect x="46" y="664" width="66" height="1.5" fill="#fff" opacity=".05"/>
<rect x="52" y="688" width="66" height="1.5" fill="#fff" opacity=".05"/>
<rect x="207" y="712" width="101" height="1.5" fill="#fff" opacity=".05"/>
<rect x="28" y="736" width="108" height="1.5" fill="#fff" opacity=".05"/>
<rect x="349" y="760" width="108" height="1.5" fill="#fff" opacity=".05"/>
<rect width="600" height="800" filter="url(#gr)" opacity=".9"/></svg>