<svg xmlns="http://www.w3.org/2000/svg" viewBox="0 0 600 800" width="600" height="800">
<defs><linearGradient id="sk" x1="0" y1="0" x2="0" y2="1"><stop offset="0" stop-color="#f5dcb4"/><stop offset="1" stop-color="#e3a46e"/></linearGradient><linearGradient id="wt" x1="0" y1="0" x2="0" y2="1"><stop offset="0" stop-color="#a8735c"/><stop offset="1" stop-color="#2a1f1a"/></linearGradient><radialGradient id="sg" cx=".5" cy=".5" r=".5"><stop offset="0" stop-color="#fbe9c8" stop-opacity=".55"/><stop offset="1" stop-color="#fbe9c8" stop-opacity="0"/></radialGradient><linearGradient id="hz" x1="0" y1="0" x2="0" y2="1"><stop offset="0" stop-color="#e3a46e" stop-opacity="0"/><stop offset=".6" stop-color="#e3a46e" stop-opacity=".55"/><stop offset="1" stop-color="#e3a46e" stop-opacity="0"/></linearGradient><radialGradient id="vg" cx=".5" cy=".42" r=".75"><stop offset=".6" stop-color="#000" stop-opacity="0"/><stop offset="1" stop-color="#000" stop-opacity=".22"/></radialGradient><filter id="gr"><feTurbulence type="fractalNoise" baseFrequency=".9" numOctaves="2" seed="71"/><feColorMatrix values="0 0 0 0 0  0 0 0 0 0  0 0 0 0 0  0 0 0 .07 0"/><feComposite in2="SourceGraphic" operator="in"/></filter></defs>
<rect width="600" height="800" fill="url(#sk)"/>
<circle cx="200" cy="220" r="135" fill="url(#sg)"/>
<circle cx="200" cy="220" r="42" fill="#fbe9c8" opacity=".92"/>
<ellipse cx="329" cy="162" rx="93" ry="15" fill="#fff" opacity=".35"/><ellipse cx="357" cy="154" rx="46" ry="13" fill="#fff" opacity=".3"/>
<ellipse cx="516" cy="290" rx="89" ry="14" fill="#fff" opacity=".35"/><ellipse cx="543" cy="282" rx="44" ry="12" fill="#fff" opacity=".3"/>
<path d="M396,311 q7,-7 14,0 q7,-7 14,0" fill="none" stroke="#2a1f1a" stroke-width="2" opacity=".55"/>
<path d="M331,261 q7,-7 13,0 q7,-7 13,0" fill="none" stroke="#2a1f1a" stroke-width="2" opacity=".55"/>
<path d="M197,137 q6,-6 13,0 q6,-6 13,0" fill="none" stroke="#2a1f1a" stroke-width="2" opacity=".55"/>
<path d="M-20,800 L-20,359 L20,353 L60,350 L100,345 L140,331 L180,337 L220,350 L260,360 L300,368 L340,374 L380,373 L420,382 L460,391 L500,396 L540,385 L580,375 L620,362 L640,800 Z" fill="#c98d6e" opacity=".55"/>
<rect x="0" y="330" width="600" height="120" fill="url(#hz)"/>
<path d="M-20,470 L70,470 L138,349 L174,298 L205,346 L278,470 L367,470 L446,317 L488,251 L525,313 L609,470 L422,470 L508,342 L553,287 L593,338 L685,470 L620,470 L620,800 L-20,800 Z" fill="#a8735c"/>
<rect x="0" y="520" width="600" height="280" fill="url(#wt)"/>
<rect x="193" y="538" width="59" height="2" fill="#fbe9c8" opacity=".55"/>
<rect x="145" y="552" width="61" height="2" fill="#fbe9c8" opacity=".55"/>
<rect x="164" y="566" width="31" height="2" fill="#fbe9c8" opacity=".55"/>
<rect x="135" y="580" width="70" height="2" fill="#fbe9c8" opacity=".55"/>
<rect x="156" y="594" width="56" height="2" fill="#fbe9c8" opacity=".55"/>
<rect x="175" y="608" width="57" height="2" fill="#fbe9c8" opacity=".55"/>
<rect x="183" y="622" width="54" height="2" fill="#fbe9c8" opacity=".55"/>
<rect x="170" y="636" width="33" height="2" fill="#fbe9c8" opacity=".55"/>
<rect x="187" y="650" width="33" height="2" fill="#fbe9c8" opacity=".55"/>
<rect x="159" y="664" width="22" height="2" fill="#fbe9c8" opacity=".55"/>
<rect x="187" y="678" width="22" height="2" fill="#fbe9c8" opacity=".55"/>
<rect x="181" y="692" width="21" height="2" fill="#fbe9c8" opacity=".55"/>
<rect x="185" y="706" width="18" height="2" fill="#fbe9c8" opacity=".55"/>
<rect x="177" y="720" width="21" height="2" fill="#fbe9c8" opacity=".55"/>
<path d="M0,520 L600,520 L600,523 L0,523 Z" fill="#fbe9c8" opacity=".4"/>
<path d="M-20,800 L-20,607 Q300.0,570 620,597 L620,800 Z" fill="#2a1f1a"/>
<rect x="332" y="640" width="176" height="1.5" fill="#fff" opacity=".05"/>
<rect x="17" y="664" width="79" height="1.5" fill="#fff" opacity=".05"/>
<rect x="13" y="688" width="108" height="1.5" fill="#fff" opacity=".05"/>
<rect x="321" y="712" width="155" height="1.5" fill="#fff" opacity=".05"/>
<rect x="3" y="736" width="162" height="1.5" fill="#fff" opacity=".05"/>
<rect x="49" y="760" width="192" height="1.5" fill="#fff" opacity=".05"/>
<path d="M431,607 q1.7,-13 3.5,-26" fill="none" stroke="#2a1f1a" stroke-width="1.7" stroke-linecap="round"/>
<path d="M105,614 q-2.8,-6 -5.6,-13" fill="none" stroke="#2a1f1a" stroke-width="2.2" stroke-linecap="round"/>
<path d="M184,612 q-2.8,-6 -5.7,-12" fill="none" stroke="#2a1f1a" stroke-width="1.6" stroke-linecap="round"/>
<path d="M20,604 q-0.7,-13 -1.4,-26" fill="none" stroke="#2a1f1a" stroke-width="2.1" stroke-linecap="round"/>
<path d="M349,602 q1.1,-6 2.1,-11" fill="none" stroke="#2a1f1a" stroke-width="1.5" stroke-linecap="round"/>
<path d="M62,602 q2.7,-5 5.4,-11" fill="none" stroke="#2a1f1a" stroke-width="1.7" stroke-linecap="round"/>
<path d="M157,606 q-1.9,-8 -3.8,-15" fill="none" stroke="#2a1f1a" stroke-width="2.4" stroke-linecap="round"/>
<path d="M283,611 q0.4,-7 0.8,-15" fill="none" stroke="#2a1f1a" stroke-width="2.3" stroke-linecap="round"/>
<path d="M390,612 q-2.4,-10 -4.8,-20" fill="none" stroke="#2a1f1a" stroke-width="2.3" stroke-linecap="round"/>
<path d="M411,611 q1.0,-7 2.0,-13" fill="none" stroke="#2a1f1a" stroke-width="2.3" stroke-linecap="round"/>
<path d="M137,607 q0.3,-5 0.6,-10" fill="none" stroke="#2a1f1a" stroke-width="1.6" stroke-linecap="round"/>
<path d="M289,604 q-1.1,-6 -2.1,-11" fill="none" stroke="#2a1f1a" stroke-width="1.5" stroke-linecap="round"/>
<path d="M336,601 q2.2,-4 4.5,-9" fill="none" stroke="#2a1f1a" stroke-width="1.9" stroke-linecap="round"/>
<path d="M446,605 q-0.6,-10 -1.2,-20" fill="none" stroke="#2a1f1a" stroke-width="2.3" stroke-linecap="round"/>
<path d="M194,604 q0.3,-8 0.5,-17" fill="none" stroke="#2a1f1a" stroke-width="2.1" stroke-linecap="round"/>
<path d="M122,601 q-1.7,-11 -3.5,-23" fill="none" stroke="#2a1f1a" stroke-width="1.4" stroke-linecap="round"/>
<path d="M158,607 q-2.9,-10 -5.8,-20" fill="none" stroke="#2a1f1a" stroke-width="1.3" stroke-linecap="round"/>
<path d="M216,611 q0.6,-9 1.2,-18" fill="none" stroke="#2a1f1a" stroke-width="2.3" stroke-linecap="round"/>
<path d="M603,603 q-0.7,-6 -1.4,-11" fill="none" stroke="#2a1f1a" stroke-width="1.4" stroke-linecap="round"/>
<path d="M366,611 q1.8,-5 3.6,-11" fill="none" stroke="#2a1f1a" stroke-width="2.2" stroke-linecap="round"/>
<path d="M51,607 q1.2,-12 2.4,-24" fill="none" stroke="#2a1f1a" stroke-width="1.5" stroke-linecap="round"/>
<path d="M423,608 q-1.6,-11 -3.2,-21" fill="none" stroke="#2a1f1a" stroke-width="1.6" stroke-linecap="round"/>
<path d="M287,610 q-2.2,-11 -4.3,-21" fill="none" stroke="#2a1f1a" stroke-width="1.4" stroke-linecap="round"/>
<path d="M411,600 q0.7,-11 1.3,-22" fill="none" stroke="#2a1f1a" stroke-width="2.2" stroke-linecap="round"/>
<path d="M502,601 q-0.2,-11 -0.3,-21" fill="none" stroke="#2a1f1a" stroke-width="1.5" stroke-linecap="round"/>
<path d="M9,609 q-0.6,-12 -1.3,-24" fill="none" stroke="#2a1f1a" stroke-width="1.8" stroke-linecap="round"/>
<path d="M438,605 q2.4,-8 4.8,-16" fill="none" stroke="#2a1f1a" stroke-width="1.7" stroke-linecap="round"/>
<path d="M283,607 q0.6,-10 1.2,-21" fill="none" stroke="#2a1f1a" stroke-width="1.5" stroke-linecap="round"/>
<path d="M551,614 q2.6,-5 5.1,-10" fill="none" stroke="#2a1f1a" stroke-width="1.6" stroke-linecap="round"/>
<path d="M113,611 q-1.7,-6 -3.3,-11" fill="none" stroke="#2a1f1a" stroke-width="1.3" stroke-linecap="round"/>
<path d="M413,602 q1.0,-10 2.1,-20" fill="none" stroke="#2a1f1a" stroke-width="1.6" stroke-linecap="round"/>
<path d="M374,608 q-0.2,-11 -0.4,-22" fill="none" stroke="#2a1f1a" stroke-width="2.2" stroke-linecap="round"/>
<path d="M116,606 q-1.8,-8 -3.6,-16" fill="none" stroke="#2a1f1a" stroke-width="1.8" stroke-linecap="round"/>
<path d="M-6,613 q-1.6,-10 -3.2,-21" fill="none" stroke="#2a1f1a" stroke-width="2.2" stroke-linecap="round"/>
<path d="M554,600 q-1.0,-11 -2.0,-23" fill="none" stroke="#2a1f1a" stroke-width="1.7" stroke-linecap="round"/>
<path d="M145,610 q0.8,-9 1.6,-17" fill="none" stroke="#2a1f1a" stroke-width="2.0" stroke-linecap="round"/>
<path d="M397,602 q-1.6,-7 -3.2,-14" fill="none" stroke="#2a1f1a" stroke-width="1.5" stroke-linecap="round"/>
<path d="M36,610 q2.1,-9 4.1,-18" fill="none" stroke="#2a1f1a" stroke-width="1.4" stroke-linecap="round"/>
<path d="M93,602 q-0.0,-8 -0.0,-16" fill="none" stroke="#2a1f1a" stroke-width="1.2" stroke-linecap="round"/>
<path d="M38,612 q2.1,-7 4.1,-14" fill="none" stroke="#2a1f1a" stroke-width="2.1" stroke-linecap="round"/>
<path d="M58,602 q-2.8,-7 -5.6,-14" fill="none" stroke="#2a1f1a" stroke-width="2.1" stroke-linecap="round"/>
<path d="M489,608 q2.3,-4 4.7,-8" fill="none" stroke="#2a1f1a" stroke-width="2.4" stroke-linecap="round"/>
<path d="M303,614 q-1.7,-7 -3.4,-13" fill="none" stroke="#2a1f1a" stroke-width="2.1" stroke-linecap="round"/>
<path d="M108,612 q-2.2,-5 -4.4,-11" fill="none" stroke="#2a1f1a" stroke-width="2.0" stroke-linecap="round"/>
<path d="M263,602 q1.7,-8 3.4,-16" fill="none" stroke="#2a1f1a" stroke-width="2.3" stroke-linecap="round"/>
<path d="M18,610 q-2.4,-5 -4.9,-10" fill="none" stroke="#2a1f1a" stroke-width="1.8" stroke-linecap="round"/>
<path d="M418,609 q-0.7,-12 -1.4,-24" fill="none" stroke="#2a1f1a" stroke-width="1.5" stroke-linecap="round"/>
<path d="M355,604 q-1.2,-9 -2.5,-19" fill="none" stroke="#2a1f1a" stroke-width="1.2" stroke-linecap="round"/>
<path d="M20,604 q-2.9,-4 -5.7,-8" fill="none" stroke="#2a1f1a" stroke-width="1.5" stroke-linecap="round"/>
<path d="M38,602 q0.0,-7 0.1,-14" fill="none" stroke="#2a1f1a" stroke-width="1.7" stroke-linecap="round"/>
<path d="M360,612 q-2.5,-5 -5.0,-9" fill="none" stroke="#2a1f1a" stroke-width="1.9" stroke-linecap="round"/>
<path d="M398,603 q1.2,-7 2.4,-15" fill="none" stroke="#2a1f1a" stroke-width="1.2" stroke-linecap="round"/>
<path d="M303,612 q0.5,-8 1.0,-15" fill="none" stroke="#2a1f1a" stroke-width="1.8" stroke-linecap="round"/>
<path d="M466,612 q-2.9,-4 -5.7,-9" fill="none" stroke="#2a1f1a" stroke-width="1.6" stroke-linecap="round"/>
<path d="M17,604 q0.5,-11 1.0,-22" fill="none" stroke="#2a1f1a" stroke-width="1.8" stroke-linecap="round"/>
<path d="M93,604 q0.4,-9 0.8,-19" fill="none" stroke="#2a1f1a" stroke-width="1.3" stroke-linecap="round"/>
<path d="M217,603 q-1.7,-8 -3.4,-17" fill="none" stroke="#2a1f1a" stroke-width="2.2" stroke-linecap="round"/>
<path d="M260,605 q-2.3,-13 -4.6,-25" fill="none" stroke="#2a1f1a" stroke-width="1.6" stroke-linecap="round"/>
<path d="M64,602 q-1.6,-4 -3.1,-8" fill="none" stroke="#2a1f1a" stroke-width="1.7" stroke-linecap="round"/>
<path d="M242,610 q-2.2,-10 -4.4,-20" fill="none" stroke="#2a1f1a" stroke-width="1.9" stroke-linecap="round"/>
<path d="M71,604 q2.9,-4 5.7,-9" fill="none" stroke="#2a1f1a" stroke-width="1.3" stroke-linecap="round"/>
<path d="M383,610 q0.6,-9 1.3,-18" fill="none" stroke="#2a1f1a" stroke-width="1.6" stroke-linecap="round"/>
<path d="M104,613 q-1.1,-10 -2.3,-21" fill="none" stroke="#2a1f1a" stroke-width="2.0" stroke-linecap="round"/>
<path d="M203,608 q-2.9,-5 -5.8,-10" fill="none" stroke="#2a1f1a" stroke-width="1.8" stroke-linecap="round"/>
<path d="M478,610 q2.1,-8 4.2,-15" fill="none" stroke="#2a1f1a" stroke-width="1.8" stroke-linecap="round"/>
<path d="M561,609 q1.7,-12 3.5,-24" fill="none" stroke="#2a1f1a" stroke-width="1.7" stroke-linecap="round"/>
<path d="M466,611 q-2.6,-8 -5.2,-17" fill="none" stroke="#2a1f1a" stroke-width="1.5" stroke-linecap="round"/>
<path d="M72,608 q0.9,-9 1.9,-18" fill="none" stroke="#2a1f1a" stroke-width="2.3" stroke-linecap="round"/>
<path d="M26,612 q0.5,-10 0.9,-19" fill="none" stroke="#2a1f1a" stroke-width="1.8" stroke-linecap="round"/>
<path d="M76,606 q-1.8,-7 -3.7,-15" fill="none" stroke="#2a1f1a" stroke-width="1.9" stroke-linecap="round"/>
<rect width="600" height="800" fill="url(#vg)"/>
<rect width="600" height="800" filter="url(#gr)" opacity=".9"/></svg>