<svg xmlns="http://www.w3.org/2000/svg" viewBox="0 0 600 800" width="600" height="800">
<defs><linearGradient id="sk" x1="0" y1="0" x2="0" y2="1"><stop offset="0" stop-color="#f4e6d8"/><stop offset="1" stop-color="#e8c9b6"/></linearGradient><linearGradient id="wt" x1="0" y1="0" x2="0" y2="1"><stop offset="0" stop-color="#8f9a7a"/><stop offset="1" stop-color="#2d3027"/></linearGradient><radialGradient id="sg" cx=".5" cy=".5" r=".5"><stop offset="0" stop-color="#fbefe2" stop-opacity=".55"/><stop offset="1" stop-color="#fbefe2" stop-opacity="0"/></radialGradient><linearGradient id="hz" x1="0" y1="0" x2="0" y2="1"><stop offset="0" stop-color="#e8c9b6" stop-opacity="0"/><stop offset=".6" stop-color="#e8c9b6" stop-opacity=".55"/><stop offset="1" stop-color="#e8c9b6" stop-opacity="0"/></linearGradient><radialGradient id="vg" cx=".5" cy=".42" r=".75"><stop offset=".6" stop-color="#000" stop-opacity="0"/><stop offset="1" stop-color="#000" stop-opacity=".22"/></radialGradient><filter id="gr"><feTurbulence type="fractalNoise" baseFrequency=".9" numOctaves="2" seed="25"/><feColorMatrix values="0 0 0 0 0  0 0 0 0 0  0 0 0 0 0  0 0 0 .07 0"/><feComposite in2="SourceGraphic" operator="in"/></filter></defs>
<rect width="600" height="800" fill="url(#sk)"/>
<circle cx="153" cy="140" r="172" fill="url(#sg)"/>
<circle cx="153" cy="140" r="54" fill="#fbefe2" opacity=".92"/>
<ellipse cx="83" cy="212" rx="88" ry="14" fill="#fff" opacity=".35"/><ellipse cx="109" cy="204" rx="44" ry="12" fill="#fff" opacity=".3"/>
<ellipse cx="184" cy="152" rx="142" ry="23" fill="#fff" opacity=".35"/><ellipse cx="226" cy="144" rx="71" ry="20" fill="#fff" opacity=".3"/>
<ellipse cx="147" cy="285" rx="116" ry="19" fill="#fff" opacity=".35"/><ellipse cx="182" cy="277" rx="58" ry="16" fill="#fff" opacity=".3"/>
<path d="M83,121 q7,-7 13,0 q7,-7 13,0" fill="none" stroke="#2d3027" stroke-width="2" opacity=".55"/>
<path d="M154,278 q4,-4 9,0 q4,-4 9,0" fill="none" stroke="#2d3027" stroke-width="2" opacity=".55"/>
<path d="M-20,800 L-20,361 L20,346 L60,357 L100,351 L140,366 L180,372 L220,364 L260,376 L300,385 L340,396 L380,396 L420,396 L460,396 L500,394 L540,384 L580,385 L620,396 L640,800 Z" fill="#c9b3a8" opacity=".55"/>
<rect x="0" y="330" width="600" height="120" fill="url(#hz)"/>
<path d="M-20,470 L-63,470 L45,329 L103,268 L153,325 L269,470 L-15,470 L70,319 L116,255 L155,315 L247,470 L620,470 L620,800 L-20,800 Z" fill="#8f9a7a"/>
<path d="M60,580 Q300,430 540,580 Z" fill="#4f6233"/>
<rect x="200" y="478" width="200" height="22" fill="#2d3027"/><rect x="220" y="456" width="160" height="22" fill="#2d3027"/><rect x="236" y="434" width="128" height="22" fill="#2d3027"/><path d="M246,434 C246,346 281,337 300,337 C319,337 354,346 354,434 Z" fill="#2d3027"/><rect x="291" y="323" width="18" height="12" fill="#2d3027"/><rect x="293" y="309" width="15" height="12" fill="#2d3027"/><rect x="294" y="295" width="12" height="12" fill="#2d3027"/><rect x="296" y="281" width="8" height="12" fill="#2d3027"/><rect x="297" y="267" width="5" height="12" fill="#2d3027"/><rect x="298" y="217" width="3" height="44" fill="#d98a8a"/>
<path d="M-20,800 L-20,599 Q300.0,566 620,608 L620,800 Z" fill="#2d3027"/>
<rect x="294" y="640" width="110" height="1.5" fill="#fff" opacity=".05"/>
<rect x="126" y="664" width="82" height="1.5" fill="#fff" opacity=".05"/>
<rect x="58" y="688" width="160" height="1.5" fill="#fff" opacity=".05"/>
<rect x="258" y="712" width="192" height="1.5" fill="#fff" opacity=".05"/>
<rect x="172" y="736" width="170" height="1.5" fill="#fff" opacity=".05"/>
<rect x="55" y="760" width="92" height="1.5" fill="#fff" opacity=".05"/>
<path d="M261,601 q0.4,-10 0.8,-20" fill="none" stroke="#2d3027" stroke-width="2.1" stroke-linecap="round"/>
<path d="M514,611 q-0.8,-13 -1.5,-25" fill="none" stroke="#2d3027" stroke-width="1.3" stroke-linecap="round"/>
<path d="M391,613 q-2.0,-11 -4.0,-23" fill="none" stroke="#2d3027" stroke-width="1.6" stroke-linecap="round"/>
<path d="M70,602 q2.9,-12 5.9,-24" fill="none" stroke="#2d3027" stroke-width="1.7" stroke-linecap="round"/>
<path d="M283,605 q1.6,-12 3.3,-23" fill="none" stroke="#2d3027" stroke-width="1.7" stroke-linecap="round"/>
<path d="M-7,604 q2.2,-12 4.5,-23" fill="none" stroke="#2d3027" stroke-width="1.8" stroke-linecap="round"/>
<path d="M102,601 q-1.0,-9 -2.1,-18" fill="none" stroke="#2d3027" stroke-width="1.4" stroke-linecap="round"/>
<path d="M398,612 q2.6,-11 5.2,-23" fill="none" stroke="#2d3027" stroke-width="2.3" stroke-linecap="round"/>
<path d="M227,603 q2.4,-7 4.8,-15" fill="none" stroke="#2d3027" stroke-width="2.1" stroke-linecap="round"/>
<path d="M408,605 q-1.4,-13 -2.9,-25" fill="none" stroke="#2d3027" stroke-width="1.4" stroke-linecap="round"/>
<path d="M268,604 q-1.4,-11 -2.9,-21" fill="none" stroke="#2d3027" stroke-width="2.0" stroke-linecap="round"/>
<path d="M314,603 q1.3,-11 2.6,-23" fill="none" stroke="#2d3027" stroke-width="1.6" stroke-linecap="round"/>
<path d="M104,606 q-2.3,-12 -4.6,-24" fill="none" stroke="#2d3027" stroke-width="1.4" stroke-linecap="round"/>
<path d="M5,605 q0.3,-9 0.6,-18" fill="none" stroke="#2d3027" stroke-width="2.2" stroke-linecap="round"/>
<path d="M422,600 q-2.9,-12 -5.8,-24" fill="none" stroke="#2d3027" stroke-width="1.8" stroke-linecap="round"/>
<path d="M279,607 q0.1,-11 0.3,-22" fill="none" stroke="#2d3027" stroke-width="1.3" stroke-linecap="round"/>
<path d="M20,602 q1.3,-8 2.5,-15" fill="none" stroke="#2d3027" stroke-width="2.2" stroke-linecap="round"/>
<path d="M82,604 q-2.8,-4 -5.6,-8" fill="none" stroke="#2d3027" stroke-width="1.4" stroke-linecap="round"/>
<path d="M295,602 q2.8,-5 5.6,-10" fill="none" stroke="#2d3027" stroke-width="1.8" stroke-linecap="round"/>
<path d="M78,607 q3.0,-13 5.9,-26" fill="none" stroke="#2d3027" stroke-width="1.6" stroke-linecap="round"/>
<path d="M473,613 q2.4,-12 4.8,-23" fill="none" stroke="#2d3027" stroke-width="1.9" stroke-linecap="round"/>
<path d="M463,608 q-1.3,-13 -2.6,-26" fill="none" stroke="#2d3027" stroke-width="1.7" stroke-linecap="round"/>
<path d="M251,602 q1.4,-4 2.7,-9" fill="none" stroke="#2d3027" stroke-width="1.3" stroke-linecap="round"/>
<path d="M470,605 q-1.6,-8 -3.3,-17" fill="none" stroke="#2d3027" stroke-width="1.9" stroke-linecap="round"/>
<path d="M372,606 q0.4,-8 0.7,-17" fill="none" stroke="#2d3027" stroke-width="2.1" stroke-linecap="round"/>
<path d="M607,611 q2.9,-7 5.7,-14" fill="none" stroke="#2d3027" stroke-width="2.2" stroke-linecap="round"/>
<path d="M55,610 q-2.6,-10 -5.2,-19" fill="none" stroke="#2d3027" stroke-width="1.8" stroke-linecap="round"/>
<path d="M470,602 q0.6,-9 1.2,-17" fill="none" stroke="#2d3027" stroke-width="1.9" stroke-linecap="round"/>
<path d="M595,609 q0.2,-7 0.4,-15" fill="none" stroke="#2d3027" stroke-width="1.4" stroke-linecap="round"/>
<path d="M283,610 q-2.3,-12 -4.7,-24" fill="none" stroke="#2d3027" stroke-width="2.1" stroke-linecap="round"/>
<path d="M197,607 q-0.1,-4 -0.2,-8" fill="none" stroke="#2d3027" stroke-width="1.5" stroke-linecap="round"/>
<path d="M400,609 q2.5,-6 4.9,-12" fill="none" stroke="#2d3027" stroke-width="1.9" stroke-linecap="round"/>
<path d="M553,613 q-0.5,-7 -1.1,-14" fill="none" stroke="#2d3027" stroke-width="1.3" stroke-linecap="round"/>
<path d="M208,611 q1.1,-5 2.2,-11" fill="none" stroke="#2d3027" stroke-width="1.3" stroke-linecap="round"/>
<path d="M327,601 q-1.2,-7 -2.3,-15" fill="none" stroke="#2d3027" stroke-width="2.2" stroke-linecap="round"/>
<path d="M362,606 q2.0,-6 4.0,-13" fill="none" stroke="#2d3027" stroke-width="2.3" stroke-linecap="round"/>
<path d="M392,609 q1.7,-5 3.3,-11" fill="none" stroke="#2d3027" stroke-width="1.9" stroke-linecap="round"/>
<path d="M384,614 q-1.9,-8 -3.7,-16" fill="none" stroke="#2d3027" stroke-width="1.4" stroke-linecap="round"/>
<path d="M403,602 q-2.1,-6 -4.2,-11" fill="none" stroke="#2d3027" stroke-width="1.3" stroke-linecap="round"/>
<path d="M385,610 q-1.9,-8 -3.9,-17" fill="none" stroke="#2d3027" stroke-width="2.4" stroke-linecap="round"/>
<path d="M34,607 q-2.4,-11 -4.7,-21" fill="none" stroke="#2d3027" stroke-width="1.9" stroke-linecap="round"/>
<path d="M68,606 q2.0,-6 4.0,-12" fill="none" stroke="#2d3027" stroke-width="1.8" stroke-linecap="round"/>
<path d="M349,608 q3.0,-7 5.9,-15" fill="none" stroke="#2d3027" stroke-width="1.6" stroke-linecap="round"/>
<path d="M213,613 q-2.0,-9 -4.0,-18" fill="none" stroke="#2d3027" stroke-width="2.4" stroke-linecap="round"/>
<path d="M604,604 q-0.8,-9 -1.5,-19" fill="none" stroke="#2d3027" stroke-width="2.3" stroke-linecap="round"/>
<path d="M394,601 q1.8,-13 3.6,-25" fill="none" stroke="#2d3027" stroke-width="2.2" stroke-linecap="round"/>
<path d="M605,609 q0.9,-6 1.8,-11" fill="none" stroke="#2d3027" stroke-width="1.6" stroke-linecap="round"/>
<path d="M432,612 q-1.0,-6 -1.9,-13" fill="none" stroke="#2d3027" stroke-width="1.4" stroke-linecap="round"/>
<path d="M326,601 q2.8,-9 5.6,-18" fill="none" stroke="#2d3027" stroke-width="1.7" stroke-linecap="round"/>
<path d="M117,611 q-0.2,-12 -0.4,-23" fill="none" stroke="#2d3027" stroke-width="2.0" stroke-linecap="round"/>
<path d="M229,612 q0.4,-8 0.8,-16" fill="none" stroke="#2d3027" stroke-width="1.9" stroke-linecap="round"/>
<path d="M300,600 q2.5,-13 5.0,-25" fill="none" stroke="#2d3027" stroke-width="2.3" stroke-linecap="round"/>
<path d="M200,601 q2.4,-13 4.7,-26" fill="none" stroke="#2d3027" stroke-width="1.4" stroke-linecap="round"/>
<path d="M312,605 q-2.5,-7 -4.9,-13" fill="none" stroke="#2d3027" stroke-width="1.9" stroke-linecap="round"/>
<path d="M243,611 q-1.0,-10 -2.1,-21" fill="none" stroke="#2d3027" stroke-width="2.3" stroke-linecap="round"/>
<path d="M168,610 q2.8,-5 5.6,-10" fill="none" stroke="#2d3027" stroke-width="1.4" stroke-linecap="round"/>
<path d="M199,613 q-0.9,-5 -1.8,-10" fill="none" stroke="#2d3027" stroke-width="1.6" stroke-linecap="round"/>
<path d="M75,604 q1.2,-8 2.3,-17" fill="none" stroke="#2d3027" stroke-width="2.0" stroke-linecap="round"/>
<path d="M105,609 q1.6,-11 3.3,-22" fill="none" stroke="#2d3027" stroke-width="2.1" stroke-linecap="round"/>
<path d="M484,611 q0.7,-12 1.4,-25" fill="none" stroke="#2d3027" stroke-width="1.7" stroke-linecap="round"/>
<path d="M301,603 q-0.3,-13 -0.5,-26" fill="none" stroke="#2d3027" stroke-width="2.1" stroke-linecap="round"/>
<path d="M266,610 q2.9,-7 5.7,-14" fill="none" stroke="#2d3027" stroke-width="1.2" stroke-linecap="round"/>
<path d="M276,606 q-1.5,-8 -2.9,-16" fill="none" stroke="#2d3027" stroke-width="1.5" stroke-linecap="round"/>
<path d="M92,610 q-3.0,-11 -6.0,-21" fill="none" stroke="#2d3027" stroke-width="1.7" stroke-linecap="round"/>
<path d="M600,605 q0.3,-12 0.6,-25" fill="none" stroke="#2d3027" stroke-width="2.0" stroke-linecap="round"/>
<path d="M409,607 q0.1,-11 0.3,-22" fill="none" stroke="#2d3027" stroke-width="2.2" stroke-linecap="round"/>
<path d="M35,604 q-2.2,-8 -4.5,-16" fill="none" stroke="#2d3027" stroke-width="1.4" stroke-linecap="round"/>
<path d="M367,602 q0.7,-6 1.3,-13" fill="none" stroke="#2d3027" stroke-width="1.4" stroke-linecap="round"/>
<path d="M134,601 q-0.7,-12 -1.4,-25" fill="none" stroke="#2d3027" stroke-width="1.7" stroke-linecap="round"/>
<path d="M249,605 q2.4,-8 4.7,-17" fill="none" stroke="#2d3027" stroke-width="2.0" stroke-linecap="round"/>
<rect width="600" height="800" fill="url(#vg)"/>
<rect width="600" height="800" filter="url(#gr)" opacity=".9"/></svg>