<svg xmlns="http://www.w3.org/2000/svg" viewBox="0 0 600 800" width="600" height="800">
<defs><linearGradient id="sk" x1="0" y1="0" x2="0" y2="1"><stop offset="0" stop-color="#f4e6d8"/><stop offset="1" stop-color="#e8c9b6"/></linearGradient><linearGradient id="wt" x1="0" y1="0" x2="0" y2="1"><stop offset="0" stop-color="#8f9a7a"/><stop offset="1" stop-color="#2d3027"/></linearGradient><radialGradient id="sg" cx=".5" cy=".5" r=".5"><stop offset="0" stop-color="#fbefe2" stop-opacity=".55"/><stop offset="1" stop-color="#fbefe2" stop-opacity="0"/></radialGradient><linearGradient id="hz" x1="0" y1="0" x2="0" y2="1"><stop offset="0" stop-color="#e8c9b6" stop-opacity="0"/><stop offset=".6" stop-color="#e8c9b6" stop-opacity=".55"/><stop offset="1" stop-color="#e8c9b6" stop-opacity="0"/></linearGradient><radialGradient id="vg" cx=".5" cy=".42" r=".75"><stop offset=".6" stop-color="#000" stop-opacity="0"/><stop offset="1" stop-color="#000" stop-opacity=".22"/></radialGradient><filter id="gr"><feTurbulence type="fractalNoise" baseFrequency=".9" numOctaves="2" seed="21"/><feColorMatrix values="0 0 0 0 0  0 0 0 0 0  0 0 0 0 0  0 0 0 .07 0"/><feComposite in2="SourceGraphic" operator="in"/></filter></defs>
<rect width="600" height="800" fill="url(#sk)"/>
<circle cx="175" cy="174" r="155" fill="url(#sg)"/>
<circle cx="175" cy="174" r="48" fill="#fbefe2" opacity=".92"/>
<ellipse cx="252" cy="139" rx="157" ry="25" fill="#fff" opacity=".35"/><ellipse cx="299" cy="131" rx="78" ry="22" fill="#fff" opacity=".3"/>
<ellipse cx="106" cy="273" rx="122" ry="20" fill="#fff" opacity=".35"/><ellipse cx="143" cy="265" rx="61" ry="17" fill="#fff" opacity=".3"/>
<ellipse cx="462" cy="139" rx="121" ry="19" fill="#fff" opacity=".35"/><ellipse cx="498" cy="131" rx="61" ry="17" fill="#fff" opacity=".3"/>
<path d="M393,316 q5,-5 10,0 q5,-5 10,0" fill="none" stroke="#2d3027" stroke-width="2" opacity=".55"/>
<path d="M108,138 q5,-5 9,0 q5,-5 9,0" fill="none" stroke="#2d3027" stroke-width="2" opacity=".55"/>
<path d="M235,317 q6,-6 12,0 q6,-6 12,0" fill="none" stroke="#2d3027" stroke-width="2" opacity=".55"/>
<path d="M198,247 q4,-4 9,0 q4,-4 9,0" fill="none" stroke="#2d3027" stroke-width="2" opacity=".55"/>
<path d="M75,260 q6,-6 12,0 q6,-6 12,0" fill="none" stroke="#2d3027" stroke-width="2" opacity=".55"/>
<path d="M-20,800 L-20,359 L20,369 L60,381 L100,379 L140,384 L180,394 L220,381 L260,386 L300,387 L340,393 L380,383 L420,386 L460,377 L500,368 L540,370 L580,384 L620,388 L640,800 Z" fill="#c9b3a8" opacity=".55"/>
<rect x="0" y="330" width="600" height="120" fill="url(#hz)"/>
<path d="M-20,800 L-20,435 L10,426 L40,415 L70,422 L100,422 L130,427 L160,433 L190,438 L220,437 L250,431 L280,430 L310,427 L340,434 L370,422 L400,414 L430,419 L460,412 L490,424 L520,415 L550,422 L580,411 L610,400 L640,800 Z" fill="#8f9a7a"/>
<rect x="0" y="520" width="600" height="280" fill="url(#wt)"/>
<rect x="-10" y="404" width="80" height="116" fill="#efe9dc"/><path d="M-16,404 h92 l-10,-16 h-72 z" fill="#2d3027"/><rect x="16" y="438" width="16" height="20" fill="#2d3027" opacity=".7"/>
<rect x="75" y="388" width="80" height="132" fill="#efe9dc"/><path d="M69,388 h92 l-10,-16 h-72 z" fill="#2d3027"/><rect x="101" y="422" width="16" height="20" fill="#2d3027" opacity=".7"/>
<rect x="160" y="421" width="80" height="99" fill="#efe9dc"/><path d="M154,421 h92 l-10,-16 h-72 z" fill="#2d3027"/><rect x="186" y="455" width="16" height="20" fill="#2d3027" opacity=".7"/>
<rect x="360" y="416" width="80" height="104" fill="#efe9dc"/><path d="M354,416 h92 l-10,-16 h-72 z" fill="#2d3027"/><rect x="386" y="450" width="16" height="20" fill="#2d3027" opacity=".7"/>
<rect x="445" y="400" width="80" height="120" fill="#efe9dc"/><path d="M439,400 h92 l-10,-16 h-72 z" fill="#2d3027"/><rect x="471" y="434" width="16" height="20" fill="#2d3027" opacity=".7"/>
<rect x="530" y="422" width="80" height="98" fill="#efe9dc"/><path d="M524,422 h92 l-10,-16 h-72 z" fill="#2d3027"/><rect x="556" y="456" width="16" height="20" fill="#2d3027" opacity=".7"/>
<path d="M190,528 Q300,430 410,528 L392,528 Q300,456 208,528 Z" fill="#b8b0a2"/><path d="M190,528 Q300,610 410,528" fill="none" stroke="#b8b0a2" stroke-width="4" opacity=".4"/>
<path d="M250,590 h70 l-10,8 h-50 z" fill="#2d3027"/>
<circle cx="40" cy="360" r="7" fill="#c8432f" opacity=".85"/>
<circle cx="140" cy="360" r="7" fill="#c8432f" opacity=".85"/>
<circle cx="240" cy="360" r="7" fill="#c8432f" opacity=".85"/>
<circle cx="340" cy="360" r="7" fill="#c8432f" opacity=".85"/>
<circle cx="440" cy="360" r="7" fill="#c8432f" opacity=".85"/>
<circle cx="540" cy="360" r="7" fill="#c8432f" opacity=".85"/>
<path d="M-20,800 L-20,599 Q300.0,587 620,599 L620,800 Z" fill="#2d3027"/>
<rect x="36" y="640" width="99" height="1.5" fill="#fff" opacity=".05"/>
<rect x="339" y="664" width="69" height="1.5" fill="#fff" opacity=".05"/>
<rect x="326" y="688" width="200" height="1.5" fill="#fff" opacity=".05"/>
<rect x="387" y="712" width="172" height="1.5" fill="#fff" opacity=".05"/>
<rect x="313" y="736" width="95" height="1.5" fill="#fff" opacity=".05"/>
<rect x="303" y="760" width="134" height="1.5" fill="#fff" opacity=".05"/>
<path d="M537,611 q0.6,-11 1.2,-22" fill="none" stroke="#2d3027" stroke-width="1.6" stroke-linecap="round"/>
<path d="M188,608 q-1.0,-11 -1.9,-21" fill="none" stroke="#2d3027" stroke-width="2.2" stroke-linecap="round"/>
<path d="M403,606 q-0.0,-8 -0.0,-16" fill="none" stroke="#2d3027" stroke-width="1.8" stroke-linecap="round"/>
<path d="M335,602 q2.0,-10 3.9,-21" fill="none" stroke="#2d3027" stroke-width="2.1" stroke-linecap="round"/>
<path d="M124,613 q-2.5,-10 -5.0,-20" fill="none" stroke="#2d3027" stroke-width="1.3" stroke-linecap="round"/>
<path d="M181,605 q-1.5,-7 -3.0,-14" fill="none" stroke="#2d3027" stroke-width="2.3" stroke-linecap="round"/>
<path d="M601,607 q-1.7,-10 -3.4,-20" fill="none" stroke="#2d3027" stroke-width="1.3" stroke-linecap="round"/>
<path d="M532,600 q2.7,-4 5.4,-8" fill="none" stroke="#2d3027" stroke-width="2.2" stroke-linecap="round"/>
<path d="M217,601 q0.5,-13 1.1,-26" fill="none" stroke="#2d3027" stroke-width="1.8" stroke-linecap="round"/>
<path d="M564,600 q-2.8,-10 -5.7,-19" fill="none" stroke="#2d3027" stroke-width="1.8" stroke-linecap="round"/>
<path d="M76,602 q-1.9,-4 -3.7,-9" fill="none" stroke="#2d3027" stroke-width="2.2" stroke-linecap="round"/>
<path d="M464,603 q1.1,-12 2.1,-24" fill="none" stroke="#2d3027" stroke-width="2.2" stroke-linecap="round"/>
<path d="M237,614 q-1.9,-9 -3.8,-18" fill="none" stroke="#2d3027" stroke-width="1.4" stroke-linecap="round"/>
<path d="M476,600 q1.0,-5 1.9,-10" fill="none" stroke="#2d3027" stroke-width="1.8" stroke-linecap="round"/>
<path d="M390,606 q2.5,-8 4.9,-15" fill="none" stroke="#2d3027" stroke-width="1.6" stroke-linecap="round"/>
<path d="M167,602 q3.0,-9 6.0,-19" fill="none" stroke="#2d3027" stroke-width="1.3" stroke-linecap="round"/>
<path d="M227,613 q2.2,-8 4.5,-16" fill="none" stroke="#2d3027" stroke-width="2.4" stroke-linecap="round"/>
<path d="M40,600 q1.5,-13 3.0,-25" fill="none" stroke="#2d3027" stroke-width="2.3" stroke-linecap="round"/>
<path d="M588,607 q1.1,-8 2.1,-16" fill="none" stroke="#2d3027" stroke-width="1.3" stroke-linecap="round"/>
<path d="M468,603 q-0.4,-7 -0.9,-13" fill="none" stroke="#2d3027" stroke-width="1.8" stroke-linecap="round"/>
<path d="M578,600 q2.0,-4 4.1,-8" fill="none" stroke="#2d3027" stroke-width="1.4" stroke-linecap="round"/>
<path d="M10,613 q3.0,-13 5.9,-25" fill="none" stroke="#2d3027" stroke-width="1.5" stroke-linecap="round"/>
<path d="M567,613 q-3.0,-10 -6.0,-20" fill="none" stroke="#2d3027" stroke-width="1.9" stroke-linecap="round"/>
<path d="M170,602 q2.9,-7 5.9,-14" fill="none" stroke="#2d3027" stroke-width="2.3" stroke-linecap="round"/>
<path d="M186,610 q2.1,-11 4.2,-22" fill="none" stroke="#2d3027" stroke-width="1.5" stroke-linecap="round"/>
<path d="M365,605 q0.7,-7 1.5,-15" fill="none" stroke="#2d3027" stroke-width="1.3" stroke-linecap="round"/>
<path d="M489,610 q2.6,-12 5.1,-24" fill="none" stroke="#2d3027" stroke-width="1.2" stroke-linecap="round"/>
<path d="M223,612 q-2.0,-10 -3.9,-21" fill="none" stroke="#2d3027" stroke-width="1.9" stroke-linecap="round"/>
<path d="M221,614 q1.9,-12 3.8,-24" fill="none" stroke="#2d3027" stroke-width="1.4" stroke-linecap="round"/>
<path d="M10,609 q2.0,-9 4.1,-18" fill="none" stroke="#2d3027" stroke-width="2.0" stroke-linecap="round"/>
<path d="M40,609 q-1.2,-12 -2.3,-23" fill="none" stroke="#2d3027" stroke-width="2.4" stroke-linecap="round"/>
<path d="M210,605 q1.6,-6 3.3,-12" fill="none" stroke="#2d3027" stroke-width="2.3" stroke-linecap="round"/>
<path d="M64,606 q0.8,-9 1.5,-18" fill="none" stroke="#2d3027" stroke-width="2.3" stroke-linecap="round"/>
<path d="M98,601 q0.0,-8 0.1,-17" fill="none" stroke="#2d3027" stroke-width="1.5" stroke-linecap="round"/>
<path d="M411,602 q-0.1,-9 -0.1,-18" fill="none" stroke="#2d3027" stroke-width="1.2" stroke-linecap="round"/>
<path d="M144,612 q-0.7,-8 -1.4,-16" fill="none" stroke="#2d3027" stroke-width="2.0" stroke-linecap="round"/>
<path d="M331,607 q2.2,-9 4.4,-18" fill="none" stroke="#2d3027" stroke-width="2.4" stroke-linecap="round"/>
<path d="M563,609 q-1.8,-5 -3.7,-10" fill="none" stroke="#2d3027" stroke-width="2.1" stroke-linecap="round"/>
<path d="M259,606 q1.1,-6 2.3,-12" fill="none" stroke="#2d3027" stroke-width="1.8" stroke-linecap="round"/>
<path d="M351,602 q0.3,-7 0.5,-14" fill="none" stroke="#2d3027" stroke-width="1.2" stroke-linecap="round"/>
<path d="M193,607 q1.6,-6 3.2,-11" fill="none" stroke="#2d3027" stroke-width="2.2" stroke-linecap="round"/>
<path d="M170,601 q-0.6,-13 -1.3,-26" fill="none" stroke="#2d3027" stroke-width="2.3" stroke-linecap="round"/>
<path d="M428,605 q-2.3,-8 -4.5,-17" fill="none" stroke="#2d3027" stroke-width="2.0" stroke-linecap="round"/>
<path d="M226,611 q0.5,-8 1.0,-17" fill="none" stroke="#2d3027" stroke-width="1.8" stroke-linecap="round"/>
<path d="M292,605 q-2.6,-4 -5.2,-8" fill="none" stroke="#2d3027" stroke-width="1.3" stroke-linecap="round"/>
<path d="M553,601 q-1.5,-13 -3.0,-26" fill="none" stroke="#2d3027" stroke-width="2.3" stroke-linecap="round"/>
<path d="M29,611 q-0.0,-9 -0.0,-19" fill="none" stroke="#2d3027" stroke-width="2.1" stroke-linecap="round"/>
<path d="M547,611 q0.7,-7 1.4,-14" fill="none" stroke="#2d3027" stroke-width="1.3" stroke-linecap="round"/>
<path d="M503,601 q2.5,-9 5.0,-18" fill="none" stroke="#2d3027" stroke-width="1.7" stroke-linecap="round"/>
<path d="M382,601 q-1.8,-4 -3.6,-9" fill="none" stroke="#2d3027" stroke-width="1.9" stroke-linecap="round"/>
<path d="M479,601 q-0.8,-9 -1.6,-18" fill="none" stroke="#2d3027" stroke-width="1.4" stroke-linecap="round"/>
<path d="M129,606 q-0.5,-7 -0.9,-13" fill="none" stroke="#2d3027" stroke-width="1.6" stroke-linecap="round"/>
<path d="M602,604 q-0.8,-8 -1.7,-16" fill="none" stroke="#2d3027" stroke-width="1.9" stroke-linecap="round"/>
<path d="M236,607 q2.6,-7 5.2,-15" fill="none" stroke="#2d3027" stroke-width="1.5" stroke-linecap="round"/>
<path d="M440,610 q-2.2,-12 -4.5,-24" fill="none" stroke="#2d3027" stroke-width="1.2" stroke-linecap="round"/>
<path d="M596,611 q-1.2,-6 -2.3,-13" fill="none" stroke="#2d3027" stroke-width="1.8" stroke-linecap="round"/>
<path d="M270,612 q0.1,-12 0.3,-23" fill="none" stroke="#2d3027" stroke-width="1.4" stroke-linecap="round"/>
<path d="M514,605 q-1.8,-5 -3.5,-10" fill="none" stroke="#2d3027" stroke-width="1.2" stroke-linecap="round"/>
<path d="M489,614 q-0.1,-10 -0.2,-20" fill="none" stroke="#2d3027" stroke-width="1.2" stroke-linecap="round"/>
<path d="M358,613 q2.4,-12 4.8,-24" fill="none" stroke="#2d3027" stroke-width="1.4" stroke-linecap="round"/>
<path d="M132,600 q2.2,-13 4.3,-25" fill="none" stroke="#2d3027" stroke-width="1.5" stroke-linecap="round"/>
<path d="M576,607 q2.8,-8 5.5,-17" fill="none" stroke="#2d3027" stroke-width="2.1" stroke-linecap="round"/>
<path d="M389,606 q2.7,-6 5.4,-13" fill="none" stroke="#2d3027" stroke-width="1.4" stroke-linecap="round"/>
<path d="M266,607 q2.0,-10 3.9,-20" fill="none" stroke="#2d3027" stroke-width="1.4" stroke-linecap="round"/>
<path d="M337,612 q-0.8,-10 -1.6,-21" fill="none" stroke="#2d3027" stroke-width="1.3" stroke-linecap="round"/>
<path d="M163,611 q-0.3,-12 -0.5,-24" fill="none" stroke="#2d3027" stroke-width="2.1" stroke-linecap="round"/>
<path d="M576,611 q-1.9,-12 -3.9,-25" fill="none" stroke="#2d3027" stroke-width="1.5" stroke-linecap="round"/>
<path d="M276,606 q-2.9,-5 -5.9,-10" fill="none" stroke="#2d3027" stroke-width="1.7" stroke-linecap="round"/>
<path d="M39,611 q1.3,-9 2.6,-18" fill="none" stroke="#2d3027" stroke-width="2.1" stroke-linecap="round"/>
<path d="M139,604 q1.5,-12 3.0,-24" fill="none" stroke="#2d3027" stroke-width="2.3" stroke-linecap="round"/>
<rect width="600" height="800" fill="url(#vg)"/>
<rect width="600" height="800" filter="url(#gr)" opacity=".9"/></svg>