<svg xmlns="http://www.w3.org/2000/svg" viewBox="0 0 600 800" width="600" height="800">
<defs><linearGradient id="sk" x1="0" y1="0" x2="0" y2="1"><stop offset="0" stop-color="#dbe9ee"/><stop offset="1" stop-color="#a9c9d6"/></linearGradient><linearGradient id="wt" x1="0" y1="0" x2="0" y2="1"><stop offset="0" stop-color="#4f7d8a"/><stop offset="1" stop-color="#1f2b2e"/></linearGradient><radialGradient id="sg" cx=".5" cy=".5" r=".5"><stop offset="0" stop-color="#fff6df" stop-opacity=".55"/><stop offset="1" stop-color="#fff6df" stop-opacity="0"/></radialGradient><linearGradient id="hz" x1="0" y1="0" x2="0" y2="1"><stop offset="0" stop-color="#a9c9d6" stop-opacity="0"/><stop offset=".6" stop-color="#a9c9d6" stop-opacity=".55"/><stop offset="1" stop-color="#a9c9d6" stop-opacity="0"/></linearGradient><radialGradient id="vg" cx=".5" cy=".42" r=".75"><stop offset=".6" stop-color="#000" stop-opacity="0"/><stop offset="1" stop-color="#000" stop-opacity=".22"/></radialGradient><filter id="gr"><feTurbulence type="fractalNoise" baseFrequency=".9" numOctaves="2" seed="95"/><feColorMatrix values="0 0 0 0 0  0 0 0 0 0  0 0 0 0 0  0 0 0 .07 0"/><feComposite in2="SourceGraphic" operator="in"/></filter></defs>
<rect width="600" height="800" fill="url(#sk)"/>
<circle cx="250" cy="225" r="117" fill="url(#sg)"/>
<circle cx="250" cy="225" r="36" fill="#fff6df" opacity=".92"/>
<ellipse cx="83" cy="113" rx="80" ry="13" fill="#fff" opacity=".35"/><ellipse cx="107" cy="105" rx="40" ry="11" fill="#fff" opacity=".3"/>
<ellipse cx="291" cy="266" rx="114" ry="18" fill="#fff" opacity=".35"/><ellipse cx="325" cy="258" rx="57" ry="16" fill="#fff" opacity=".3"/>
<ellipse cx="268" cy="79" rx="130" ry="21" fill="#fff" opacity=".35"/><ellipse cx="306" cy="71" rx="65" ry="18" fill="#fff" opacity=".3"/>
<ellipse cx="124" cy="288" rx="87" ry="14" fill="#fff" opacity=".35"/><ellipse cx="150" cy="280" rx="44" ry="12" fill="#fff" opacity=".3"/>
<path d="M437,174 q6,-6 12,0 q6,-6 12,0" fill="none" stroke="#1f2b2e" stroke-width="2" opacity=".55"/>
<path d="M124,217 q5,-5 11,0 q5,-5 11,0" fill="none" stroke="#1f2b2e" stroke-width="2" opacity=".55"/>
<path d="M300,123 q6,-6 11,0 q6,-6 11,0" fill="none" stroke="#1f2b2e" stroke-width="2" opacity=".55"/>
<path d="M151,222 q5,-5 11,0 q5,-5 11,0" fill="none" stroke="#1f2b2e" stroke-width="2" opacity=".55"/>
<path d="M-20,800 L-20,371 L20,374 L60,383 L100,372 L140,377 L180,390 L220,389 L260,377 L300,377 L340,367 L380,365 L420,363 L460,358 L500,344 L540,332 L580,339 L620,354 L640,800 Z" fill="#8fb0bf" opacity=".55"/>
<rect x="0" y="330" width="600" height="120" fill="url(#hz)"/>
<path d="M-20,800 L-20,447 L10,458 L40,465 L70,467 L100,460 L130,458 L160,459 L190,455 L220,464 L250,471 L280,471 L310,471 L340,471 L370,471 L400,471 L430,467 L460,458 L490,468 L520,460 L550,452 L580,464 L610,452 L640,800 Z" fill="#4f7d8a"/>
<path d="M-20,800 L-20,440 0,441 20,443 40,445 60,447 80,450 100,454 120,458 140,462 160,466 180,470 200,474 220,479 240,483 260,486 280,490 300,493 320,495 340,497 360,499 380,500 400,500 420,500 440,499 460,497 480,495 500,493 520,490 540,486 560,482 580,478 600,474 620,470 L640,800 Z" fill="#4f7d8a"/>
<path d="M-20,800 L-20,546 0,550 20,553 40,555 60,557 80,559 100,560 120,560 140,560 160,559 180,557 200,555 220,553 240,550 260,546 280,542 300,538 320,534 340,530 360,526 380,521 400,517 420,514 440,510 460,507 480,505 500,503 520,501 540,500 560,500 580,500 600,501 620,503 L640,800 Z" fill="#2f5c6b"/>
<ellipse cx="308" cy="536" rx="9" ry="5" fill="#f4efe6" opacity=".9"/>
<ellipse cx="357" cy="567" rx="9" ry="5" fill="#f4efe6" opacity=".9"/>
<ellipse cx="284" cy="552" rx="9" ry="5" fill="#f4efe6" opacity=".9"/>
<ellipse cx="191" cy="563" rx="9" ry="5" fill="#f4efe6" opacity=".9"/>
<ellipse cx="452" cy="558" rx="9" ry="5" fill="#f4efe6" opacity=".9"/>
<ellipse cx="502" cy="536" rx="9" ry="5" fill="#f4efe6" opacity=".9"/>
<g transform="translate(391,561) scale(1,1)" fill="#1f2b2e"><path d="M-14,-10 h22 q6,0 8,-6 l6,-8 4,2 -5,10 q-1,4 -6,6 v16 h-3 v-12 h-16 v12 h-3 v-14 q-6,-2 -7,-6 z"/></g>
<g transform="translate(239,566) scale(1,1)" fill="#1f2b2e"><path d="M-14,-10 h22 q6,0 8,-6 l6,-8 4,2 -5,10 q-1,4 -6,6 v16 h-3 v-12 h-16 v12 h-3 v-14 q-6,-2 -7,-6 z"/></g>
<g transform="translate(184,573) scale(-1,1)" fill="#1f2b2e"><path d="M-14,-10 h22 q6,0 8,-6 l6,-8 4,2 -5,10 q-1,4 -6,6 v16 h-3 v-12 h-16 v12 h-3 v-14 q-6,-2 -7,-6 z"/></g>
<g transform="translate(516,569) scale(1,1)" fill="#1f2b2e"><path d="M-14,-10 h22 q6,0 8,-6 l6,-8 4,2 -5,10 q-1,4 -6,6 v16 h-3 v-12 h-16 v12 h-3 v-14 q-6,-2 -7,-6 z"/></g>
<path d="M-20,800 L-20,601 Q300.0,571 620,603 L620,800 Z" fill="#1f2b2e"/>
<rect x="300" y="640" width="150" height="1.5" fill="#fff" opacity=".05"/>
<rect x="248" y="664" width="129" height="1.5" fill="#fff" opacity=".05"/>
<rect x="325" y="688" width="174" height="1.5" fill="#fff" opacity=".05"/>
<rect x="171" y="712" width="162" height="1.5" fill="#fff" opacity=".05"/>
<rect x="253" y="736" width="92" height="1.5" fill="#fff" opacity=".05"/>
<rect x="210" y="760" width="167" height="1.5" fill="#fff" opacity=".05"/>
<path d="M199,604 q0.0,-8 0.0,-17" fill="none" stroke="#1f2b2e" stroke-width="1.7" stroke-linecap="round"/>
<path d="M382,611 q2.7,-10 5.3,-20" fill="none" stroke="#1f2b2e" stroke-width="1.6" stroke-linecap="round"/>
<path d="M432,600 q-1.4,-7 -2.8,-13" fill="none" stroke="#1f2b2e" stroke-width="1.7" stroke-linecap="round"/>
<path d="M460,614 q0.1,-10 0.3,-20" fill="none" stroke="#1f2b2e" stroke-width="2.3" stroke-linecap="round"/>
<path d="M596,606 q-1.2,-10 -2.5,-20" fill="none" stroke="#1f2b2e" stroke-width="1.2" stroke-linecap="round"/>
<path d="M360,612 q2.0,-10 3.9,-19" fill="none" stroke="#1f2b2e" stroke-width="2.2" stroke-linecap="round"/>
<path d="M486,601 q-2.8,-9 -5.7,-19" fill="none" stroke="#1f2b2e" stroke-width="1.3" stroke-linecap="round"/>
<path d="M205,610 q2.3,-10 4.6,-21" fill="none" stroke="#1f2b2e" stroke-width="2.3" stroke-linecap="round"/>
<path d="M153,605 q-2.0,-5 -4.0,-10" fill="none" stroke="#1f2b2e" stroke-width="2.3" stroke-linecap="round"/>
<path d="M287,608 q0.8,-8 1.5,-17" fill="none" stroke="#1f2b2e" stroke-width="2.1" stroke-linecap="round"/>
<path d="M354,603 q2.7,-5 5.5,-10" fill="none" stroke="#1f2b2e" stroke-width="2.0" stroke-linecap="round"/>
<path d="M9,604 q-1.8,-5 -3.6,-9" fill="none" stroke="#1f2b2e" stroke-width="2.1" stroke-linecap="round"/>
<path d="M110,611 q-1.6,-9 -3.2,-18" fill="none" stroke="#1f2b2e" stroke-width="1.7" stroke-linecap="round"/>
<path d="M317,611 q0.5,-12 1.0,-24" fill="none" stroke="#1f2b2e" stroke-width="2.2" stroke-linecap="round"/>
<path d="M579,613 q2.2,-8 4.4,-17" fill="none" stroke="#1f2b2e" stroke-width="2.0" stroke-linecap="round"/>
<path d="M550,604 q1.6,-13 3.1,-25" fill="none" stroke="#1f2b2e" stroke-width="1.7" stroke-linecap="round"/>
<path d="M588,602 q1.7,-6 3.5,-13" fill="none" stroke="#1f2b2e" stroke-width="1.8" stroke-linecap="round"/>
<path d="M324,609 q-2.1,-7 -4.2,-13" fill="none" stroke="#1f2b2e" stroke-width="2.1" stroke-linecap="round"/>
<path d="M571,604 q1.3,-5 2.6,-11" fill="none" stroke="#1f2b2e" stroke-width="1.3" stroke-linecap="round"/>
<path d="M-5,603 q2.1,-13 4.1,-25" fill="none" stroke="#1f2b2e" stroke-width="2.3" stroke-linecap="round"/>
<path d="M351,610 q-1.5,-5 -2.9,-10" fill="none" stroke="#1f2b2e" stroke-width="1.9" stroke-linecap="round"/>
<path d="M172,601 q-0.5,-13 -1.0,-26" fill="none" stroke="#1f2b2e" stroke-width="1.6" stroke-linecap="round"/>
<path d="M155,610 q0.4,-8 0.8,-16" fill="none" stroke="#1f2b2e" stroke-width="2.0" stroke-linecap="round"/>
<path d="M553,603 q-0.3,-10 -0.7,-19" fill="none" stroke="#1f2b2e" stroke-width="2.1" stroke-linecap="round"/>
<path d="M412,614 q-1.8,-8 -3.5,-16" fill="none" stroke="#1f2b2e" stroke-width="1.6" stroke-linecap="round"/>
<path d="M93,605 q-1.4,-9 -2.8,-18" fill="none" stroke="#1f2b2e" stroke-width="2.3" stroke-linecap="round"/>
<path d="M392,606 q2.5,-10 5.0,-20" fill="none" stroke="#1f2b2e" stroke-width="1.8" stroke-linecap="round"/>
<path d="M388,612 q-1.5,-12 -3.0,-25" fill="none" stroke="#1f2b2e" stroke-width="2.1" stroke-linecap="round"/>
<path d="M336,609 q-0.4,-5 -0.9,-10" fill="none" stroke="#1f2b2e" stroke-width="2.0" stroke-linecap="round"/>
<path d="M513,614 q-1.4,-9 -2.8,-18" fill="none" stroke="#1f2b2e" stroke-width="1.9" stroke-linecap="round"/>
<path d="M186,612 q1.1,-10 2.2,-20" fill="none" stroke="#1f2b2e" stroke-width="1.6" stroke-linecap="round"/>
<path d="M415,605 q0.5,-10 1.1,-21" fill="none" stroke="#1f2b2e" stroke-width="1.6" stroke-linecap="round"/>
<path d="M509,603 q2.1,-12 4.2,-24" fill="none" stroke="#1f2b2e" stroke-width="2.0" stroke-linecap="round"/>
<path d="M4,609 q2.0,-4 4.0,-9" fill="none" stroke="#1f2b2e" stroke-width="2.2" stroke-linecap="round"/>
<path d="M12,613 q-2.4,-11 -4.9,-21" fill="none" stroke="#1f2b2e" stroke-width="1.6" stroke-linecap="round"/>
<path d="M169,612 q-0.4,-12 -0.8,-24" fill="none" stroke="#1f2b2e" stroke-width="2.4" stroke-linecap="round"/>
<path d="M50,602 q0.7,-10 1.3,-20" fill="none" stroke="#1f2b2e" stroke-width="1.3" stroke-linecap="round"/>
<path d="M32,607 q-0.7,-7 -1.4,-14" fill="none" stroke="#1f2b2e" stroke-width="2.2" stroke-linecap="round"/>
<path d="M371,604 q2.8,-12 5.7,-24" fill="none" stroke="#1f2b2e" stroke-width="1.3" stroke-linecap="round"/>
<path d="M370,605 q-2.7,-6 -5.4,-13" fill="none" stroke="#1f2b2e" stroke-width="1.7" stroke-linecap="round"/>
<path d="M414,609 q-1.9,-11 -3.7,-22" fill="none" stroke="#1f2b2e" stroke-width="1.5" stroke-linecap="round"/>
<path d="M108,613 q0.8,-8 1.5,-16" fill="none" stroke="#1f2b2e" stroke-width="1.7" stroke-linecap="round"/>
<path d="M586,603 q1.2,-8 2.5,-15" fill="none" stroke="#1f2b2e" stroke-width="1.5" stroke-linecap="round"/>
<path d="M101,605 q2.0,-4 4.0,-9" fill="none" stroke="#1f2b2e" stroke-width="1.6" stroke-linecap="round"/>
<path d="M473,608 q-2.0,-8 -4.0,-17" fill="none" stroke="#1f2b2e" stroke-width="1.2" stroke-linecap="round"/>
<path d="M-1,601 q-1.9,-7 -3.8,-13" fill="none" stroke="#1f2b2e" stroke-width="2.3" stroke-linecap="round"/>
<path d="M475,608 q1.6,-8 3.3,-17" fill="none" stroke="#1f2b2e" stroke-width="1.2" stroke-linecap="round"/>
<path d="M478,601 q-0.1,-11 -0.2,-22" fill="none" stroke="#1f2b2e" stroke-width="1.7" stroke-linecap="round"/>
<path d="M451,602 q-0.5,-10 -0.9,-21" fill="none" stroke="#1f2b2e" stroke-width="1.3" stroke-linecap="round"/>
<path d="M317,600 q3.0,-8 6.0,-16" fill="none" stroke="#1f2b2e" stroke-width="1.9" stroke-linecap="round"/>
<path d="M443,614 q-0.3,-5 -0.7,-11" fill="none" stroke="#1f2b2e" stroke-width="1.6" stroke-linecap="round"/>
<path d="M113,613 q-0.4,-11 -0.7,-23" fill="none" stroke="#1f2b2e" stroke-width="2.3" stroke-linecap="round"/>
<path d="M167,610 q-2.4,-5 -4.7,-10" fill="none" stroke="#1f2b2e" stroke-width="1.3" stroke-linecap="round"/>
<path d="M430,607 q-0.9,-8 -1.8,-15" fill="none" stroke="#1f2b2e" stroke-width="1.3" stroke-linecap="round"/>
<path d="M502,611 q2.9,-6 5.9,-13" fill="none" stroke="#1f2b2e" stroke-width="1.5" stroke-linecap="round"/>
<path d="M415,604 q-2.5,-10 -5.0,-20" fill="none" stroke="#1f2b2e" stroke-width="2.1" stroke-linecap="round"/>
<path d="M436,603 q-0.7,-5 -1.4,-10" fill="none" stroke="#1f2b2e" stroke-width="2.1" stroke-linecap="round"/>
<path d="M180,601 q-0.8,-9 -1.6,-18" fill="none" stroke="#1f2b2e" stroke-width="2.0" stroke-linecap="round"/>
<path d="M608,605 q1.2,-12 2.4,-24" fill="none" stroke="#1f2b2e" stroke-width="2.1" stroke-linecap="round"/>
<path d="M423,612 q2.1,-9 4.1,-18" fill="none" stroke="#1f2b2e" stroke-width="1.3" stroke-linecap="round"/>
<path d="M281,601 q-2.4,-9 -4.9,-17" fill="none" stroke="#1f2b2e" stroke-width="2.1" stroke-linecap="round"/>
<path d="M538,608 q1.0,-6 2.0,-11" fill="none" stroke="#1f2b2e" stroke-width="1.5" stroke-linecap="round"/>
<path d="M17,603 q-2.9,-4 -5.8,-8" fill="none" stroke="#1f2b2e" stroke-width="1.5" stroke-linecap="round"/>
<path d="M495,608 q-1.1,-10 -2.2,-21" fill="none" stroke="#1f2b2e" stroke-width="2.0" stroke-linecap="round"/>
<path d="M434,610 q0.6,-11 1.1,-22" fill="none" stroke="#1f2b2e" stroke-width="2.0" stroke-linecap="round"/>
<path d="M36,608 q1.0,-8 2.0,-17" fill="none" stroke="#1f2b2e" stroke-width="1.8" stroke-linecap="round"/>
<path d="M297,608 q-2.1,-6 -4.1,-13" fill="none" stroke="#1f2b2e" stroke-width="1.2" stroke-linecap="round"/>
<path d="M392,608 q-2.4,-13 -4.9,-26" fill="none" stroke="#1f2b2e" stroke-width="1.3" stroke-linecap="round"/>
<path d="M510,609 q2.9,-10 5.8,-19" fill="none" stroke="#1f2b2e" stroke-width="2.3" stroke-linecap="round"/>
<path d="M236,612 q-2.3,-8 -4.7,-16" fill="none" stroke="#1f2b2e" stroke-width="1.7" stroke-linecap="round"/>
<rect width="600" height="800" fill="url(#vg)"/>
<rect width="600" height="800" filter="url(#gr)" opacity=".9"/></svg>