<svg xmlns="http://www.w3.org/2000/svg" viewBox="0 0 600 800" width="600" height="800">
<defs><linearGradient id="sk" x1="0" y1="0" x2="0" y2="1"><stop offset="0" stop-color="#f3c9b3"/><stop offset="1" stop-color="#a77a8f"/></linearGradient><linearGradient id="wt" x1="0" y1="0" x2="0" y2="1"><stop offset="0" stop-color="#5a4a62"/><stop offset="1" stop-color="#1d1a24"/></linearGradient><radialGradient id="sg" cx=".5" cy=".5" r=".5"><stop offset="0" stop-color="#fde3c4" stop-opacity=".55"/><stop offset="1" stop-color="#fde3c4" stop-opacity="0"/></radialGradient><linearGradient id="hz" x1="0" y1="0" x2="0" y2="1"><stop offset="0" stop-color="#a77a8f" stop-opacity="0"/><stop offset=".6" stop-color="#a77a8f" stop-opacity=".55"/><stop offset="1" stop-color="#a77a8f" stop-opacity="0"/></linearGradient><radialGradient id="vg" cx=".5" cy=".42" r=".75"><stop offset=".6" stop-color="#000" stop-opacity="0"/><stop offset="1" stop-color="#000" stop-opacity=".22"/></radialGradient><filter id="gr"><feTurbulence type="fractalNoise" baseFrequency=".9" numOctaves="2" seed="10"/><feColorMatrix values="0 0 0 0 0  0 0 0 0 0  0 0 0 0 0  0 0 0 .07 0"/><feComposite in2="SourceGraphic" operator="in"/></filter></defs>
<rect width="600" height="800" fill="url(#sk)"/>
<circle cx="308" cy="147" r="163" fill="url(#sg)"/>
<circle cx="308" cy="147" r="51" fill="#fde3c4" opacity=".92"/>
<ellipse cx="384" cy="113" rx="135" ry="22" fill="#fff" opacity=".35"/><ellipse cx="424" cy="105" rx="68" ry="19" fill="#fff" opacity=".3"/>
<ellipse cx="592" cy="251" rx="137" ry="22" fill="#fff" opacity=".35"/><ellipse cx="633" cy="243" rx="68" ry="19" fill="#fff" opacity=".3"/>
<ellipse cx="232" cy="250" rx="106" ry="17" fill="#fff" opacity=".35"/><ellipse cx="264" cy="242" rx="53" ry="15" fill="#fff" opacity=".3"/>
<path d="M456,242 q5,-5 10,0 q5,-5 10,0" fill="none" stroke="#1d1a24" stroke-width="2" opacity=".55"/>
<path d="M323,210 q4,-4 8,0 q4,-4 8,0" fill="none" stroke="#1d1a24" stroke-width="2" opacity=".55"/>
<path d="M263,226 q5,-5 10,0 q5,-5 10,0" fill="none" stroke="#1d1a24" stroke-width="2" opacity=".55"/>
<path d="M381,287 q7,-7 14,0 q7,-7 14,0" fill="none" stroke="#1d1a24" stroke-width="2" opacity=".55"/>
<path d="M-20,800 L-20,373 L20,386 L60,394 L100,396 L140,393 L180,396 L220,396 L260,396 L300,396 L340,396 L380,391 L420,395 L460,383 L500,380 L540,386 L580,396 L620,396 L640,800 Z" fill="#8a6a7f" opacity=".55"/>
<rect x="0" y="330" width="600" height="120" fill="url(#hz)"/>
<path d="M-20,800 L-20,452 L10,454 L40,467 L70,471 L100,466 L130,466 L160,471 L190,459 L220,456 L250,459 L280,464 L310,456 L340,456 L370,449 L400,446 L430,453 L460,464 L490,464 L520,471 L550,463 L580,468 L610,471 L640,800 Z" fill="#5a4a62"/>
<rect x="0" y="560" width="600" height="800" fill="url(#wt)"/>
<rect x="-10" y="461" width="93" height="99" fill="#efe9dc"/>
<path d="M-18,461 Q37,435 91,461 L83,471 L-10,471 Z" fill="#1d1a24"/>
<rect x="4" y="487" width="12" height="16" fill="#1d1a24" opacity=".75"/>
<rect x="49" y="487" width="12" height="16" fill="#1d1a24" opacity=".75"/>
<rect x="96" y="497" width="96" height="63" fill="#efe9dc"/>
<path d="M88,497 Q144,471 200,497 L192,507 L96,507 Z" fill="#1d1a24"/>
<rect x="110" y="523" width="12" height="16" fill="#1d1a24" opacity=".75"/>
<rect x="156" y="523" width="12" height="16" fill="#1d1a24" opacity=".75"/>
<circle cx="144" cy="519" r="6" fill="#f0b36a"/>
<rect x="200" y="494" width="113" height="66" fill="#efe9dc"/>
<path d="M192,494 Q256,468 321,494 L313,504 L200,504 Z" fill="#1d1a24"/>
<rect x="214" y="520" width="12" height="16" fill="#1d1a24" opacity=".75"/>
<rect x="275" y="520" width="12" height="16" fill="#1d1a24" opacity=".75"/>
<circle cx="256" cy="516" r="6" fill="#f0b36a"/>
<rect x="325" y="468" width="73" height="92" fill="#efe9dc"/>
<path d="M317,468 Q361,442 406,468 L398,478 L325,478 Z" fill="#1d1a24"/>
<rect x="339" y="494" width="12" height="16" fill="#1d1a24" opacity=".75"/>
<rect x="366" y="494" width="12" height="16" fill="#1d1a24" opacity=".75"/>
<rect x="407" y="472" width="84" height="88" fill="#efe9dc"/>
<path d="M399,472 Q449,446 499,472 L491,482 L407,482 Z" fill="#1d1a24"/>
<rect x="421" y="498" width="12" height="16" fill="#1d1a24" opacity=".75"/>
<rect x="457" y="498" width="12" height="16" fill="#1d1a24" opacity=".75"/>
<rect x="495" y="452" width="80" height="108" fill="#efe9dc"/>
<path d="M487,452 Q535,426 583,452 L575,462 L495,462 Z" fill="#1d1a24"/>
<rect x="509" y="478" width="12" height="16" fill="#1d1a24" opacity=".75"/>
<rect x="542" y="478" width="12" height="16" fill="#1d1a24" opacity=".75"/>
<rect x="587" y="455" width="85" height="105" fill="#efe9dc"/>
<path d="M579,455 Q630,429 680,455 L672,465 L587,465 Z" fill="#1d1a24"/>
<rect x="601" y="481" width="12" height="16" fill="#1d1a24" opacity=".75"/>
<rect x="638" y="481" width="12" height="16" fill="#1d1a24" opacity=".75"/>
<path d="M140,640 Q300,550 460,640" fill="none" stroke="#efe9dc" stroke-width="10"/>
<path d="M-20,800 L-20,591 Q300.0,587 620,609 L620,800 Z" fill="#1d1a24"/>
<rect x="311" y="640" width="104" height="1.5" fill="#fff" opacity=".05"/>
<rect x="351" y="664" width="119" height="1.5" fill="#fff" opacity=".05"/>
<rect x="204" y="688" width="88" height="1.5" fill="#fff" opacity=".05"/>
<rect x="292" y="712" width="199" height="1.5" fill="#fff" opacity=".05"/>
<rect x="64" y="736" width="141" height="1.5" fill="#fff" opacity=".05"/>
<rect x="32" y="760" width="172" height="1.5" fill="#fff" opacity=".05"/>
<path d="M464,607 q-0.6,-7 -1.2,-15" fill="none" stroke="#1d1a24" stroke-width="1.9" stroke-linecap="round"/>
<path d="M411,608 q-2.4,-4 -4.7,-8" fill="none" stroke="#1d1a24" stroke-width="1.7" stroke-linecap="round"/>
<path d="M385,609 q0.8,-4 1.6,-8" fill="none" stroke="#1d1a24" stroke-width="2.0" stroke-linecap="round"/>
<path d="M293,609 q0.4,-6 0.8,-11" fill="none" stroke="#1d1a24" stroke-width="1.9" stroke-linecap="round"/>
<path d="M60,605 q1.4,-5 2.8,-9" fill="none" stroke="#1d1a24" stroke-width="1.7" stroke-linecap="round"/>
<path d="M0,601 q2.7,-12 5.3,-24" fill="none" stroke="#1d1a24" stroke-width="1.8" stroke-linecap="round"/>
<path d="M371,611 q-2.7,-6 -5.3,-13" fill="none" stroke="#1d1a24" stroke-width="1.3" stroke-linecap="round"/>
<path d="M167,604 q1.8,-7 3.6,-14" fill="none" stroke="#1d1a24" stroke-width="1.8" stroke-linecap="round"/>
<path d="M297,602 q-2.6,-12 -5.2,-25" fill="none" stroke="#1d1a24" stroke-width="1.8" stroke-linecap="round"/>
<path d="M483,610 q-0.0,-6 -0.0,-13" fill="none" stroke="#1d1a24" stroke-width="1.4" stroke-linecap="round"/>
<path d="M359,609 q-1.3,-5 -2.6,-10" fill="none" stroke="#1d1a24" stroke-width="1.3" stroke-linecap="round"/>
<path d="M37,602 q2.0,-5 4.0,-11" fill="none" stroke="#1d1a24" stroke-width="1.9" stroke-linecap="round"/>
<path d="M345,610 q-0.4,-5 -0.9,-10" fill="none" stroke="#1d1a24" stroke-width="1.8" stroke-linecap="round"/>
<path d="M367,606 q-0.4,-5 -0.7,-10" fill="none" stroke="#1d1a24" stroke-width="2.2" stroke-linecap="round"/>
<path d="M151,610 q-0.7,-8 -1.3,-16" fill="none" stroke="#1d1a24" stroke-width="1.4" stroke-linecap="round"/>
<path d="M417,606 q-1.5,-6 -3.0,-12" fill="none" stroke="#1d1a24" stroke-width="1.3" stroke-linecap="round"/>
<path d="M226,608 q1.8,-8 3.5,-16" fill="none" stroke="#1d1a24" stroke-width="1.3" stroke-linecap="round"/>
<path d="M-7,607 q-0.5,-13 -1.1,-26" fill="none" stroke="#1d1a24" stroke-width="2.1" stroke-linecap="round"/>
<path d="M177,612 q0.5,-7 1.0,-15" fill="none" stroke="#1d1a24" stroke-width="1.5" stroke-linecap="round"/>
<path d="M216,602 q-0.2,-11 -0.4,-22" fill="none" stroke="#1d1a24" stroke-width="2.0" stroke-linecap="round"/>
<path d="M201,613 q2.9,-10 5.9,-20" fill="none" stroke="#1d1a24" stroke-width="1.5" stroke-linecap="round"/>
<path d="M294,606 q-1.1,-6 -2.2,-12" fill="none" stroke="#1d1a24" stroke-width="2.3" stroke-linecap="round"/>
<path d="M416,610 q-0.2,-10 -0.3,-21" fill="none" stroke="#1d1a24" stroke-width="2.3" stroke-linecap="round"/>
<path d="M585,613 q3.0,-10 6.0,-21" fill="none" stroke="#1d1a24" stroke-width="2.1" stroke-linecap="round"/>
<path d="M31,607 q-0.2,-7 -0.5,-14" fill="none" stroke="#1d1a24" stroke-width="2.1" stroke-linecap="round"/>
<path d="M483,612 q0.9,-5 1.8,-11" fill="none" stroke="#1d1a24" stroke-width="1.5" stroke-linecap="round"/>
<path d="M217,601 q-2.1,-8 -4.1,-15" fill="none" stroke="#1d1a24" stroke-width="2.0" stroke-linecap="round"/>
<path d="M194,613 q1.0,-12 1.9,-24" fill="none" stroke="#1d1a24" stroke-width="2.1" stroke-linecap="round"/>
<path d="M458,611 q2.3,-8 4.6,-17" fill="none" stroke="#1d1a24" stroke-width="1.7" stroke-linecap="round"/>
<path d="M199,601 q2.6,-6 5.2,-12" fill="none" stroke="#1d1a24" stroke-width="1.6" stroke-linecap="round"/>
<path d="M120,606 q-1.3,-13 -2.7,-26" fill="none" stroke="#1d1a24" stroke-width="1.5" stroke-linecap="round"/>
<path d="M567,606 q-0.4,-9 -0.8,-18" fill="none" stroke="#1d1a24" stroke-width="1.6" stroke-linecap="round"/>
<path d="M257,607 q2.0,-10 4.1,-21" fill="none" stroke="#1d1a24" stroke-width="2.1" stroke-linecap="round"/>
<path d="M315,603 q1.3,-5 2.5,-10" fill="none" stroke="#1d1a24" stroke-width="1.5" stroke-linecap="round"/>
<path d="M211,609 q-1.2,-11 -2.5,-22" fill="none" stroke="#1d1a24" stroke-width="2.0" stroke-linecap="round"/>
<path d="M273,608 q-1.2,-7 -2.3,-15" fill="none" stroke="#1d1a24" stroke-width="2.4" stroke-linecap="round"/>
<path d="M240,614 q-0.5,-10 -1.0,-19" fill="none" stroke="#1d1a24" stroke-width="2.0" stroke-linecap="round"/>
<path d="M504,609 q0.3,-7 0.5,-14" fill="none" stroke="#1d1a24" stroke-width="1.8" stroke-linecap="round"/>
<path d="M246,604 q-1.7,-10 -3.3,-19" fill="none" stroke="#1d1a24" stroke-width="2.0" stroke-linecap="round"/>
<path d="M16,613 q-2.7,-5 -5.3,-9" fill="none" stroke="#1d1a24" stroke-width="1.9" stroke-linecap="round"/>
<path d="M125,606 q2.6,-11 5.3,-22" fill="none" stroke="#1d1a24" stroke-width="2.4" stroke-linecap="round"/>
<path d="M321,604 q3.0,-7 5.9,-13" fill="none" stroke="#1d1a24" stroke-width="2.4" stroke-linecap="round"/>
<path d="M70,610 q0.8,-7 1.6,-14" fill="none" stroke="#1d1a24" stroke-width="2.3" stroke-linecap="round"/>
<path d="M161,601 q-2.5,-6 -5.0,-13" fill="none" stroke="#1d1a24" stroke-width="2.4" stroke-linecap="round"/>
<path d="M517,608 q0.5,-13 1.0,-26" fill="none" stroke="#1d1a24" stroke-width="2.1" stroke-linecap="round"/>
<path d="M569,611 q-2.0,-10 -4.0,-20" fill="none" stroke="#1d1a24" stroke-width="1.5" stroke-linecap="round"/>
<path d="M216,602 q-0.1,-9 -0.2,-17" fill="none" stroke="#1d1a24" stroke-width="2.2" stroke-linecap="round"/>
<path d="M553,609 q1.9,-11 3.8,-21" fill="none" stroke="#1d1a24" stroke-width="1.3" stroke-linecap="round"/>
<path d="M256,610 q-1.9,-12 -3.7,-25" fill="none" stroke="#1d1a24" stroke-width="1.6" stroke-linecap="round"/>
<path d="M32,601 q-2.3,-10 -4.7,-21" fill="none" stroke="#1d1a24" stroke-width="1.4" stroke-linecap="round"/>
<path d="M15,604 q-1.1,-9 -2.3,-19" fill="none" stroke="#1d1a24" stroke-width="1.6" stroke-linecap="round"/>
<path d="M68,612 q-0.9,-12 -1.9,-25" fill="none" stroke="#1d1a24" stroke-width="2.2" stroke-linecap="round"/>
<path d="M419,612 q-1.8,-5 -3.7,-10" fill="none" stroke="#1d1a24" stroke-width="2.1" stroke-linecap="round"/>
<path d="M394,609 q1.0,-10 2.0,-21" fill="none" stroke="#1d1a24" stroke-width="2.3" stroke-linecap="round"/>
<path d="M404,612 q-1.5,-10 -3.1,-20" fill="none" stroke="#1d1a24" stroke-width="2.2" stroke-linecap="round"/>
<path d="M498,603 q2.2,-8 4.4,-16" fill="none" stroke="#1d1a24" stroke-width="2.0" stroke-linecap="round"/>
<path d="M188,603 q-1.0,-11 -1.9,-21" fill="none" stroke="#1d1a24" stroke-width="2.2" stroke-linecap="round"/>
<path d="M440,607 q1.8,-10 3.5,-20" fill="none" stroke="#1d1a24" stroke-width="1.8" stroke-linecap="round"/>
<path d="M246,606 q-1.1,-9 -2.2,-18" fill="none" stroke="#1d1a24" stroke-width="2.3" stroke-linecap="round"/>
<path d="M214,609 q-2.7,-10 -5.4,-21" fill="none" stroke="#1d1a24" stroke-width="1.3" stroke-linecap="round"/>
<path d="M414,601 q-2.8,-11 -5.6,-21" fill="none" stroke="#1d1a24" stroke-width="1.7" stroke-linecap="round"/>
<path d="M605,604 q-1.1,-8 -2.2,-17" fill="none" stroke="#1d1a24" stroke-width="2.4" stroke-linecap="round"/>
<path d="M260,601 q1.8,-4 3.6,-9" fill="none" stroke="#1d1a24" stroke-width="1.2" stroke-linecap="round"/>
<path d="M246,611 q-1.3,-6 -2.6,-12" fill="none" stroke="#1d1a24" stroke-width="2.1" stroke-linecap="round"/>
<path d="M366,604 q1.6,-12 3.1,-23" fill="none" stroke="#1d1a24" stroke-width="2.0" stroke-linecap="round"/>
<path d="M12,610 q-0.5,-7 -1.0,-14" fill="none" stroke="#1d1a24" stroke-width="2.0" stroke-linecap="round"/>
<path d="M426,604 q0.1,-9 0.1,-18" fill="none" stroke="#1d1a24" stroke-width="2.3" stroke-linecap="round"/>
<path d="M144,605 q-0.4,-6 -0.8,-12" fill="none" stroke="#1d1a24" stroke-width="1.9" stroke-linecap="round"/>
<path d="M239,608 q0.3,-12 0.6,-25" fill="none" stroke="#1d1a24" stroke-width="1.4" stroke-linecap="round"/>
<path d="M24,606 q-1.1,-7 -2.3,-15" fill="none" stroke="#1d1a24" stroke-width="1.8" stroke-linecap="round"/>
<rect width="600" height="800" fill="url(#vg)"/>
<rect width="600" height="800" filter="url(#gr)" opacity=".9"/></svg>