<svg xmlns="http://www.w3.org/2000/svg" viewBox="0 0 600 800" width="600" height="800">
<defs><linearGradient id="sk" x1="0" y1="0" x2="0" y2="1"><stop offset="0" stop-color="#f5dcb4"/><stop offset="1" stop-color="#e3a46e"/></linearGradient><linearGradient id="wt" x1="0" y1="0" x2="0" y2="1"><stop offset="0" stop-color="#a8735c"/><stop offset="1" stop-color="#2a1f1a"/></linearGradient><radialGradient id="sg" cx=".5" cy=".5" r=".5"><stop offset="0" stop-color="#fbe9c8" stop-opacity=".55"/><stop offset="1" stop-color="#fbe9c8" stop-opacity="0"/></radialGradient><linearGradient id="hz" x1="0" y1="0" x2="0" y2="1"><stop offset="0" stop-color="#e3a46e" stop-opacity="0"/><stop offset=".6" stop-color="#e3a46e" stop-opacity=".55"/><stop offset="1" stop-color="#e3a46e" stop-opacity="0"/></linearGradient><radialGradient id="vg" cx=".5" cy=".42" r=".75"><stop offset=".6" stop-color="#000" stop-opacity="0"/><stop offset="1" stop-color="#000" stop-opacity=".22"/></radialGradient><filter id="gr"><feTurbulence type="fractalNoise" baseFrequency=".9" numOctaves="2" seed="34"/><feColorMatrix values="0 0 0 0 0  0 0 0 0 0  0 0 0 0 0  0 0 0 .07 0"/><feComposite in2="SourceGraphic" operator="in"/></filter></defs>
<rect width="600" height="800" fill="url(#sk)"/>
<circle cx="245" cy="112" r="116" fill="url(#sg)"/>
<circle cx="245" cy="112" r="36" fill="#fbe9c8" opacity=".92"/>
<ellipse cx="322" cy="208" rx="147" ry="23" fill="#fff" opacity=".35"/><ellipse cx="366" cy="200" rx="73" ry="21" fill="#fff" opacity=".3"/>
<ellipse cx="55" cy="245" rx="117" ry="19" fill="#fff" opacity=".35"/><ellipse cx="90" cy="237" rx="58" ry="16" fill="#fff" opacity=".3"/>
<ellipse cx="164" cy="134" rx="129" ry="21" fill="#fff" opacity=".35"/><ellipse cx="203" cy="126" rx="65" ry="18" fill="#fff" opacity=".3"/>
<ellipse cx="190" cy="140" rx="83" ry="13" fill="#fff" opacity=".35"/><ellipse cx="215" cy="132" rx="42" ry="12" fill="#fff" opacity=".3"/>
<path d="M461,284 q5,-5 10,0 q5,-5 10,0" fill="none" stroke="#2a1f1a" stroke-width="2" opacity=".55"/>
<path d="M281,255 q6,-6 11,0 q6,-6 11,0" fill="none" stroke="#2a1f1a" stroke-width="2" opacity=".55"/>
<path d="M367,297 q4,-4 8,0 q4,-4 8,0" fill="none" stroke="#2a1f1a" stroke-width="2" opacity=".55"/>
<path d="M351,134 q4,-4 9,0 q4,-4 9,0" fill="none" stroke="#2a1f1a" stroke-width="2" opacity=".55"/>
<path d="M-20,800 L-20,351 L20,338 L60,324 L100,333 L140,338 L180,342 L220,327 L260,326 L300,331 L340,317 L380,315 L420,305 L460,294 L500,294 L540,301 L580,308 L620,297 L640,800 Z" fill="#c98d6e" opacity=".55"/>
<rect x="0" y="330" width="600" height="120" fill="url(#hz)"/>
<path d="M-20,800 L-20,429 L10,423 L40,412 L70,416 L100,426 L130,415 L160,405 L190,400 L220,408 L250,417 L280,426 L310,435 L340,433 L370,434 L400,436 L430,446 L460,436 L490,441 L520,436 L550,424 L580,415 L610,409 L640,800 Z" fill="#a8735c"/>
<rect x="0" y="560" width="600" height="800" fill="url(#wt)"/>
<rect x="-10" y="460" width="99" height="100" fill="#efe9dc"/>
<path d="M-18,460 Q40,434 97,460 L89,470 L-10,470 Z" fill="#2a1f1a"/>
<rect x="4" y="486" width="12" height="16" fill="#2a1f1a" opacity=".75"/>
<rect x="53" y="486" width="12" height="16" fill="#2a1f1a" opacity=".75"/>
<circle cx="40" cy="482" r="6" fill="#e0a03a"/>
<rect x="93" y="456" width="97" height="104" fill="#efe9dc"/>
<path d="M85,456 Q142,430 198,456 L190,466 L93,466 Z" fill="#2a1f1a"/>
<rect x="107" y="482" width="12" height="16" fill="#2a1f1a" opacity=".75"/>
<rect x="155" y="482" width="12" height="16" fill="#2a1f1a" opacity=".75"/>
<rect x="203" y="457" width="102" height="103" fill="#efe9dc"/>
<path d="M195,457 Q254,431 313,457 L305,467 L203,467 Z" fill="#2a1f1a"/>
<rect x="217" y="483" width="12" height="16" fill="#2a1f1a" opacity=".75"/>
<rect x="269" y="483" width="12" height="16" fill="#2a1f1a" opacity=".75"/>
<circle cx="254" cy="479" r="6" fill="#e0a03a"/>
<rect x="313" y="450" width="120" height="110" fill="#efe9dc"/>
<path d="M305,450 Q373,424 441,450 L433,460 L313,460 Z" fill="#2a1f1a"/>
<rect x="327" y="476" width="12" height="16" fill="#2a1f1a" opacity=".75"/>
<rect x="394" y="476" width="12" height="16" fill="#2a1f1a" opacity=".75"/>
<rect x="442" y="494" width="98" height="66" fill="#efe9dc"/>
<path d="M434,494 Q491,468 548,494 L540,504 L442,504 Z" fill="#2a1f1a"/>
<rect x="456" y="520" width="12" height="16" fill="#2a1f1a" opacity=".75"/>
<rect x="505" y="520" width="12" height="16" fill="#2a1f1a" opacity=".75"/>
<rect x="549" y="453" width="71" height="107" fill="#efe9dc"/>
<path d="M541,453 Q584,427 628,453 L620,463 L549,463 Z" fill="#2a1f1a"/>
<rect x="563" y="479" width="12" height="16" fill="#2a1f1a" opacity=".75"/>
<rect x="589" y="479" width="12" height="16" fill="#2a1f1a" opacity=".75"/>
<circle cx="584" cy="475" r="6" fill="#e0a03a"/>
<path d="M140,640 Q300,550 460,640" fill="none" stroke="#efe9dc" stroke-width="10"/>
<path d="M-20,800 L-20,597 Q300.0,579 620,604 L620,800 Z" fill="#2a1f1a"/>
<rect x="147" y="640" width="134" height="1.5" fill="#fff" opacity=".05"/>
<rect x="364" y="664" width="116" height="1.5" fill="#fff" opacity=".05"/>
<rect x="167" y="688" width="110" height="1.5" fill="#fff" opacity=".05"/>
<rect x="4" y="712" width="101" height="1.5" fill="#fff" opacity=".05"/>
<rect x="365" y="736" width="185" height="1.5" fill="#fff" opacity=".05"/>
<rect x="326" y="760" width="77" height="1.5" fill="#fff" opacity=".05"/>
<path d="M417,602 q-1.4,-11 -2.9,-22" fill="none" stroke="#2a1f1a" stroke-width="1.9" stroke-linecap="round"/>
<path d="M519,610 q1.4,-7 2.8,-13" fill="none" stroke="#2a1f1a" stroke-width="1.8" stroke-linecap="round"/>
<path d="M183,608 q-2.5,-7 -5.1,-14" fill="none" stroke="#2a1f1a" stroke-width="1.3" stroke-linecap="round"/>
<path d="M402,604 q-2.8,-5 -5.6,-11" fill="none" stroke="#2a1f1a" stroke-width="1.5" stroke-linecap="round"/>
<path d="M467,600 q1.0,-12 2.1,-24" fill="none" stroke="#2a1f1a" stroke-width="2.1" stroke-linecap="round"/>
<path d="M366,605 q1.6,-6 3.2,-12" fill="none" stroke="#2a1f1a" stroke-width="2.1" stroke-linecap="round"/>
<path d="M581,606 q1.5,-6 3.0,-11" fill="none" stroke="#2a1f1a" stroke-width="1.6" stroke-linecap="round"/>
<path d="M296,611 q2.7,-12 5.4,-24" fill="none" stroke="#2a1f1a" stroke-width="2.3" stroke-linecap="round"/>
<path d="M79,613 q-1.2,-6 -2.4,-12" fill="none" stroke="#2a1f1a" stroke-width="1.4" stroke-linecap="round"/>
<path d="M367,613 q1.2,-7 2.4,-13" fill="none" stroke="#2a1f1a" stroke-width="2.3" stroke-linecap="round"/>
<path d="M522,607 q2.4,-9 4.9,-17" fill="none" stroke="#2a1f1a" stroke-width="1.7" stroke-linecap="round"/>
<path d="M498,601 q-1.0,-9 -2.1,-17" fill="none" stroke="#2a1f1a" stroke-width="2.0" stroke-linecap="round"/>
<path d="M153,604 q-2.4,-13 -4.9,-25" fill="none" stroke="#2a1f1a" stroke-width="1.3" stroke-linecap="round"/>
<path d="M339,609 q1.5,-9 3.0,-17" fill="none" stroke="#2a1f1a" stroke-width="1.2" stroke-linecap="round"/>
<path d="M314,605 q0.6,-10 1.2,-19" fill="none" stroke="#2a1f1a" stroke-width="2.3" stroke-linecap="round"/>
<path d="M422,611 q1.0,-13 2.1,-26" fill="none" stroke="#2a1f1a" stroke-width="1.6" stroke-linecap="round"/>
<path d="M407,611 q-0.7,-10 -1.3,-20" fill="none" stroke="#2a1f1a" stroke-width="2.3" stroke-linecap="round"/>
<path d="M455,610 q0.4,-11 0.7,-22" fill="none" stroke="#2a1f1a" stroke-width="1.5" stroke-linecap="round"/>
<path d="M376,612 q-0.4,-9 -0.9,-18" fill="none" stroke="#2a1f1a" stroke-width="2.2" stroke-linecap="round"/>
<path d="M541,602 q-2.6,-9 -5.1,-18" fill="none" stroke="#2a1f1a" stroke-width="2.3" stroke-linecap="round"/>
<path d="M102,610 q1.2,-7 2.3,-15" fill="none" stroke="#2a1f1a" stroke-width="2.1" stroke-linecap="round"/>
<path d="M189,603 q-1.3,-5 -2.5,-10" fill="none" stroke="#2a1f1a" stroke-width="1.9" stroke-linecap="round"/>
<path d="M347,605 q0.7,-7 1.5,-13" fill="none" stroke="#2a1f1a" stroke-width="1.7" stroke-linecap="round"/>
<path d="M463,601 q2.7,-10 5.5,-21" fill="none" stroke="#2a1f1a" stroke-width="1.3" stroke-linecap="round"/>
<path d="M598,614 q2.1,-5 4.3,-9" fill="none" stroke="#2a1f1a" stroke-width="2.0" stroke-linecap="round"/>
<path d="M596,603 q1.5,-10 2.9,-20" fill="none" stroke="#2a1f1a" stroke-width="1.6" stroke-linecap="round"/>
<path d="M66,610 q1.8,-11 3.7,-22" fill="none" stroke="#2a1f1a" stroke-width="1.5" stroke-linecap="round"/>
<path d="M215,606 q-2.4,-9 -4.8,-17" fill="none" stroke="#2a1f1a" stroke-width="1.9" stroke-linecap="round"/>
<path d="M73,610 q-0.3,-6 -0.6,-12" fill="none" stroke="#2a1f1a" stroke-width="2.0" stroke-linecap="round"/>
<path d="M356,612 q0.1,-10 0.3,-20" fill="none" stroke="#2a1f1a" stroke-width="2.0" stroke-linecap="round"/>
<path d="M167,604 q-1.4,-6 -2.8,-13" fill="none" stroke="#2a1f1a" stroke-width="1.6" stroke-linecap="round"/>
<path d="M103,614 q2.9,-7 5.8,-15" fill="none" stroke="#2a1f1a" stroke-width="1.5" stroke-linecap="round"/>
<path d="M-2,611 q2.3,-8 4.6,-17" fill="none" stroke="#2a1f1a" stroke-width="1.5" stroke-linecap="round"/>
<path d="M439,612 q0.3,-10 0.5,-20" fill="none" stroke="#2a1f1a" stroke-width="1.8" stroke-linecap="round"/>
<path d="M480,603 q1.1,-4 2.2,-8" fill="none" stroke="#2a1f1a" stroke-width="2.0" stroke-linecap="round"/>
<path d="M40,600 q1.6,-11 3.2,-22" fill="none" stroke="#2a1f1a" stroke-width="1.3" stroke-linecap="round"/>
<path d="M425,611 q2.4,-4 4.8,-8" fill="none" stroke="#2a1f1a" stroke-width="1.5" stroke-linecap="round"/>
<path d="M203,612 q0.9,-5 1.9,-10" fill="none" stroke="#2a1f1a" stroke-width="1.6" stroke-linecap="round"/>
<path d="M484,613 q-2.6,-10 -5.3,-20" fill="none" stroke="#2a1f1a" stroke-width="2.3" stroke-linecap="round"/>
<path d="M214,601 q-1.7,-13 -3.4,-25" fill="none" stroke="#2a1f1a" stroke-width="2.0" stroke-linecap="round"/>
<path d="M512,610 q0.4,-5 0.8,-10" fill="none" stroke="#2a1f1a" stroke-width="1.3" stroke-linecap="round"/>
<path d="M607,606 q0.4,-10 0.9,-20" fill="none" stroke="#2a1f1a" stroke-width="2.2" stroke-linecap="round"/>
<path d="M2,605 q-1.7,-6 -3.4,-13" fill="none" stroke="#2a1f1a" stroke-width="2.3" stroke-linecap="round"/>
<path d="M68,607 q2.5,-8 4.9,-16" fill="none" stroke="#2a1f1a" stroke-width="1.2" stroke-linecap="round"/>
<path d="M504,605 q1.1,-6 2.2,-12" fill="none" stroke="#2a1f1a" stroke-width="1.6" stroke-linecap="round"/>
<path d="M474,613 q2.9,-12 5.9,-24" fill="none" stroke="#2a1f1a" stroke-width="1.4" stroke-linecap="round"/>
<path d="M384,606 q2.3,-5 4.6,-11" fill="none" stroke="#2a1f1a" stroke-width="1.5" stroke-linecap="round"/>
<path d="M319,602 q-0.5,-12 -1.0,-23" fill="none" stroke="#2a1f1a" stroke-width="1.7" stroke-linecap="round"/>
<path d="M322,604 q0.7,-12 1.5,-24" fill="none" stroke="#2a1f1a" stroke-width="2.2" stroke-linecap="round"/>
<path d="M196,604 q-1.9,-10 -3.8,-19" fill="none" stroke="#2a1f1a" stroke-width="1.8" stroke-linecap="round"/>
<path d="M4,606 q2.7,-6 5.4,-12" fill="none" stroke="#2a1f1a" stroke-width="2.3" stroke-linecap="round"/>
<path d="M78,610 q2.2,-8 4.4,-15" fill="none" stroke="#2a1f1a" stroke-width="2.1" stroke-linecap="round"/>
<path d="M599,608 q1.9,-13 3.8,-25" fill="none" stroke="#2a1f1a" stroke-width="1.3" stroke-linecap="round"/>
<path d="M201,604 q1.9,-9 3.7,-18" fill="none" stroke="#2a1f1a" stroke-width="2.4" stroke-linecap="round"/>
<path d="M203,611 q2.9,-5 5.8,-11" fill="none" stroke="#2a1f1a" stroke-width="1.3" stroke-linecap="round"/>
<path d="M142,603 q-2.5,-9 -5.1,-18" fill="none" stroke="#2a1f1a" stroke-width="1.5" stroke-linecap="round"/>
<path d="M209,610 q2.1,-9 4.3,-19" fill="none" stroke="#2a1f1a" stroke-width="1.8" stroke-linecap="round"/>
<path d="M470,611 q0.4,-8 0.8,-17" fill="none" stroke="#2a1f1a" stroke-width="1.5" stroke-linecap="round"/>
<path d="M600,605 q2.4,-8 4.7,-16" fill="none" stroke="#2a1f1a" stroke-width="2.3" stroke-linecap="round"/>
<path d="M454,614 q-0.9,-4 -1.9,-9" fill="none" stroke="#2a1f1a" stroke-width="1.7" stroke-linecap="round"/>
<path d="M523,605 q-2.3,-9 -4.6,-18" fill="none" stroke="#2a1f1a" stroke-width="2.0" stroke-linecap="round"/>
<path d="M80,613 q-2.1,-6 -4.2,-13" fill="none" stroke="#2a1f1a" stroke-width="1.8" stroke-linecap="round"/>
<path d="M104,605 q0.7,-12 1.4,-24" fill="none" stroke="#2a1f1a" stroke-width="1.6" stroke-linecap="round"/>
<path d="M145,604 q1.9,-4 3.8,-9" fill="none" stroke="#2a1f1a" stroke-width="2.2" stroke-linecap="round"/>
<path d="M420,603 q-2.2,-5 -4.3,-10" fill="none" stroke="#2a1f1a" stroke-width="2.1" stroke-linecap="round"/>
<path d="M419,604 q-0.9,-5 -1.9,-9" fill="none" stroke="#2a1f1a" stroke-width="2.2" stroke-linecap="round"/>
<path d="M366,606 q1.4,-10 2.8,-21" fill="none" stroke="#2a1f1a" stroke-width="2.3" stroke-linecap="round"/>
<path d="M295,611 q1.5,-5 2.9,-9" fill="none" stroke="#2a1f1a" stroke-width="1.7" stroke-linecap="round"/>
<path d="M22,601 q0.7,-8 1.4,-16" fill="none" stroke="#2a1f1a" stroke-width="2.4" stroke-linecap="round"/>
<path d="M300,607 q-2.2,-6 -4.5,-12" fill="none" stroke="#2a1f1a" stroke-width="2.3" stroke-linecap="round"/>
<rect width="600" height="800" fill="url(#vg)"/>
<rect width="600" height="800" filter="url(#gr)" opacity=".9"/></svg>