<svg xmlns="http://www.w3.org/2000/svg" viewBox="0 0 600 800" width="600" height="800">
<defs><linearGradient id="sk" x1="0" y1="0" x2="0" y2="1"><stop offset="0" stop-color="#f5dcb4"/><stop offset="1" stop-color="#e3a46e"/></linearGradient><linearGradient id="wt" x1="0" y1="0" x2="0" y2="1"><stop offset="0" stop-color="#a8735c"/><stop offset="1" stop-color="#2a1f1a"/></linearGradient><filter id="gr"><feTurbulence type="fractalNoise" baseFrequency=".9" numOctaves="2" seed="3"/><feColorMatrix values="0 0 0 0 0  0 0 0 0 0  0 0 0 0 0  0 0 0 .07 0"/><feComposite in2="SourceGraphic" operator="in"/></filter></defs>
<rect width="600" height="800" fill="url(#sk)"/>
<circle cx="214" cy="186" r="41" fill="#fbe9c8" opacity=".9"/>
<ellipse cx="75" cy="196" rx="157" ry="25" fill="#fff" opacity=".35"/><ellipse cx="122" cy="188" rx="78" ry="22" fill="#fff" opacity=".3"/>
<ellipse cx="130" cy="240" rx="145" ry="23" fill="#fff" opacity=".35"/><ellipse cx="174" cy="232" rx="73" ry="20" fill="#fff" opacity=".3"/>
<ellipse cx="460" cy="146" rx="123" ry="20" fill="#fff" opacity=".35"/><ellipse cx="496" cy="138" rx="62" ry="17" fill="#fff" opacity=".3"/>
<ellipse cx="405" cy="251" rx="153" ry="24" fill="#fff" opacity=".35"/><ellipse cx="451" cy="243" rx="76" ry="21" fill="#fff" opacity=".3"/>
<path d="M284,311 q4,-4 8,0 q4,-4 8,0" fill="none" stroke="#2a1f1a" stroke-width="2" opacity=".55"/>
<path d="M454,144 q5,-5 10,0 q5,-5 10,0" fill="none" stroke="#2a1f1a" stroke-width="2" opacity=".55"/>
<path d="M157,172 q5,-5 10,0 q5,-5 10,0" fill="none" stroke="#2a1f1a" stroke-width="2" opacity=".55"/>
<path d="M290,200 q7,-7 13,0 q7,-7 13,0" fill="none" stroke="#2a1f1a" stroke-width="2" opacity=".55"/>
<path d="M376,169 q6,-6 11,0 q6,-6 11,0" fill="none" stroke="#2a1f1a" stroke-width="2" opacity=".55"/>
<path d="M-20,800 L-20,345 L20,341 L60,340 L100,348 L140,349 L180,363 L220,352 L260,342 L300,337 L340,328 L380,327 L420,334 L460,319 L500,317 L540,311 L580,315 L620,323 L640,800 Z" fill="#c98d6e" opacity=".55"/>
<path d="M-20,470 L-82,470 L16,349 L69,298 L114,346 L219,470 L364,470 L452,271 L500,186 L541,265 L636,470 L620,470 L620,800 L-20,800 Z" fill="#a8735c"/>
<rect x="0" y="520" width="600" height="280" fill="url(#wt)"/>
<rect x="163" y="538" width="76" height="2" fill="#fbe9c8" opacity=".55"/>
<rect x="190" y="552" width="42" height="2" fill="#fbe9c8" opacity=".55"/>
<rect x="200" y="566" width="56" height="2" fill="#fbe9c8" opacity=".55"/>
<rect x="199" y="580" width="35" height="2" fill="#fbe9c8" opacity=".55"/>
<rect x="191" y="594" width="51" height="2" fill="#fbe9c8" opacity=".55"/>
<rect x="214" y="608" width="43" height="2" fill="#fbe9c8" opacity=".55"/>
<rect x="207" y="622" width="28" height="2" fill="#fbe9c8" opacity=".55"/>
<rect x="217" y="636" width="28" height="2" fill="#fbe9c8" opacity=".55"/>
<rect x="187" y="650" width="31" height="2" fill="#fbe9c8" opacity=".55"/>
<rect x="168" y="664" width="40" height="2" fill="#fbe9c8" opacity=".55"/>
<rect x="206" y="678" width="21" height="2" fill="#fbe9c8" opacity=".55"/>
<rect x="201" y="692" width="17" height="2" fill="#fbe9c8" opacity=".55"/>
<rect x="185" y="706" width="29" height="2" fill="#fbe9c8" opacity=".55"/>
<rect x="195" y="720" width="17" height="2" fill="#fbe9c8" opacity=".55"/>
<path d="M0,520 L600,520 L600,523 L0,523 Z" fill="#fbe9c8" opacity=".4"/>
<path d="M-20,800 L-20,593 Q300.0,592 620,606 L620,800 Z" fill="#2a1f1a"/>
<rect x="345" y="640" width="152" height="1.5" fill="#fff" opacity=".05"/>
<rect x="6" y="664" width="114" height="1.5" fill="#fff" opacity=".05"/>
<rect x="81" y="688" width="73" height="1.5" fill="#fff" opacity=".05"/>
<rect x="276" y="712" width="105" height="1.5" fill="#fff" opacity=".05"/>
<rect x="310" y="736" width="95" height="1.5" fill="#fff" opacity=".05"/>
<rect x="350" y="760" width="92" height="1.5" fill="#fff" opacity=".05"/>
<rect width="600" height="800" filter="url(#gr)" opacity=".9"/></svg>