<svg xmlns="http://www.w3.org/2000/svg" viewBox="0 0 600 800" width="600" height="800">
<defs><linearGradient id="sk" x1="0" y1="0" x2="0" y2="1"><stop offset="0" stop-color="#f4e6d8"/><stop offset="1" stop-color="#e8c9b6"/></linearGradient><linearGradient id="wt" x1="0" y1="0" x2="0" y2="1"><stop offset="0" stop-color="#8f9a7a"/><stop offset="1" stop-color="#2d3027"/></linearGradient><radialGradient id="sg" cx=".5" cy=".5" r=".5"><stop offset="0" stop-color="#fbefe2" stop-opacity=".55"/><stop offset="1" stop-color="#fbefe2" stop-opacity="0"/></radialGradient><linearGradient id="hz" x1="0" y1="0" x2="0" y2="1"><stop offset="0" stop-color="#e8c9b6" stop-opacity="0"/><stop offset=".6" stop-color="#e8c9b6" stop-opacity=".55"/><stop offset="1" stop-color="#e8c9b6" stop-opacity="0"/></linearGradient><radialGradient id="vg" cx=".5" cy=".42" r=".75"><stop offset=".6" stop-color="#000" stop-opacity="0"/><stop offset="1" stop-color="#000" stop-opacity=".22"/></radialGradient><filter id="gr"><feTurbulence type="fractalNoise" baseFrequency=".9" numOctaves="2" seed="36"/><feColorMatrix values="0 0 0 0 0  0 0 0 0 0  0 0 0 0 0  0 0 0 .07 0"/><feComposite in2="SourceGraphic" operator="in"/></filter></defs>
<rect width="600" height="800" fill="url(#sk)"/>
<circle cx="351" cy="181" r="171" fill="url(#sg)"/>
<circle cx="351" cy="181" r="53" fill="#fbefe2" opacity=".92"/>
<ellipse cx="218" cy="201" rx="155" ry="25" fill="#fff" opacity=".35"/><ellipse cx="265" cy="193" rx="77" ry="22" fill="#fff" opacity=".3"/>
<ellipse cx="112" cy="293" rx="81" ry="13" fill="#fff" opacity=".35"/><ellipse cx="136" cy="285" rx="41" ry="11" fill="#fff" opacity=".3"/>
<ellipse cx="168" cy="192" rx="151" ry="24" fill="#fff" opacity=".35"/><ellipse cx="213" cy="184" rx="76" ry="21" fill="#fff" opacity=".3"/>
<path d="M97,229 q6,-6 12,0 q6,-6 12,0" fill="none" stroke="#2d3027" stroke-width="2" opacity=".55"/>
<path d="M201,218 q7,-7 14,0 q7,-7 14,0" fill="none" stroke="#2d3027" stroke-width="2" opacity=".55"/>
<path d="M143,181 q5,-5 10,0 q5,-5 10,0" fill="none" stroke="#2d3027" stroke-width="2" opacity=".55"/>
<path d="M153,304 q7,-7 14,0 q7,-7 14,0" fill="none" stroke="#2d3027" stroke-width="2" opacity=".55"/>
<path d="M398,286 q4,-4 8,0 q4,-4 8,0" fill="none" stroke="#2d3027" stroke-width="2" opacity=".55"/>
<path d="M-20,800 L-20,367 L20,373 L60,364 L100,353 L140,338 L180,331 L220,317 L260,331 L300,325 L340,320 L380,315 L420,327 L460,324 L500,312 L540,303 L580,316 L620,325 L640,800 Z" fill="#c9b3a8" opacity=".55"/>
<rect x="0" y="330" width="600" height="120" fill="url(#hz)"/>
<path d="M-20,800 L-20,443 L10,450 L40,439 L70,437 L100,448 L130,445 L160,440 L190,428 L220,441 L250,448 L280,442 L310,432 L340,422 L370,428 L400,418 L430,421 L460,431 L490,428 L520,434 L550,424 L580,419 L610,428 L640,800 Z" fill="#8f9a7a"/>
<rect x="0" y="560" width="600" height="800" fill="url(#wt)"/>
<rect x="-10" y="472" width="114" height="88" fill="#efe9dc"/>
<path d="M-18,472 Q47,446 112,472 L104,482 L-10,482 Z" fill="#2d3027"/>
<rect x="4" y="498" width="12" height="16" fill="#2d3027" opacity=".75"/>
<rect x="66" y="498" width="12" height="16" fill="#2d3027" opacity=".75"/>
<rect x="111" y="476" width="75" height="84" fill="#efe9dc"/>
<path d="M103,476 Q148,450 194,476 L186,486 L111,486 Z" fill="#2d3027"/>
<rect x="125" y="502" width="12" height="16" fill="#2d3027" opacity=".75"/>
<rect x="154" y="502" width="12" height="16" fill="#2d3027" opacity=".75"/>
<circle cx="148" cy="498" r="6" fill="#d98a8a"/>
<rect x="196" y="465" width="95" height="95" fill="#efe9dc"/>
<path d="M188,465 Q244,439 299,465 L291,475 L196,475 Z" fill="#2d3027"/>
<rect x="210" y="491" width="12" height="16" fill="#2d3027" opacity=".75"/>
<rect x="256" y="491" width="12" height="16" fill="#2d3027" opacity=".75"/>
<rect x="296" y="482" width="105" height="78" fill="#efe9dc"/>
<path d="M288,482 Q349,456 409,482 L401,492 L296,492 Z" fill="#2d3027"/>
<rect x="310" y="508" width="12" height="16" fill="#2d3027" opacity=".75"/>
<rect x="364" y="508" width="12" height="16" fill="#2d3027" opacity=".75"/>
<rect x="415" y="453" width="120" height="107" fill="#efe9dc"/>
<path d="M407,453 Q475,427 543,453 L535,463 L415,463 Z" fill="#2d3027"/>
<rect x="429" y="479" width="12" height="16" fill="#2d3027" opacity=".75"/>
<rect x="496" y="479" width="12" height="16" fill="#2d3027" opacity=".75"/>
<circle cx="475" cy="475" r="6" fill="#d98a8a"/>
<rect x="546" y="493" width="74" height="67" fill="#efe9dc"/>
<path d="M538,493 Q583,467 628,493 L620,503 L546,503 Z" fill="#2d3027"/>
<rect x="560" y="519" width="12" height="16" fill="#2d3027" opacity=".75"/>
<rect x="588" y="519" width="12" height="16" fill="#2d3027" opacity=".75"/>
<path d="M140,640 Q300,550 460,640" fill="none" stroke="#efe9dc" stroke-width="10"/>
<path d="M-20,800 L-20,596 Q300.0,574 620,611 L620,800 Z" fill="#2d3027"/>
<rect x="220" y="640" width="164" height="1.5" fill="#fff" opacity=".05"/>
<rect x="279" y="664" width="75" height="1.5" fill="#fff" opacity=".05"/>
<rect x="112" y="688" width="149" height="1.5" fill="#fff" opacity=".05"/>
<rect x="81" y="712" width="69" height="1.5" fill="#fff" opacity=".05"/>
<rect x="97" y="736" width="188" height="1.5" fill="#fff" opacity=".05"/>
<rect x="305" y="760" width="68" height="1.5" fill="#fff" opacity=".05"/>
<path d="M507,608 q-0.2,-10 -0.4,-19" fill="none" stroke="#2d3027" stroke-width="1.8" stroke-linecap="round"/>
<path d="M492,604 q-2.0,-5 -4.0,-10" fill="none" stroke="#2d3027" stroke-width="2.1" stroke-linecap="round"/>
<path d="M432,601 q-1.9,-9 -3.8,-19" fill="none" stroke="#2d3027" stroke-width="2.2" stroke-linecap="round"/>
<path d="M75,603 q0.8,-5 1.6,-9" fill="none" stroke="#2d3027" stroke-width="1.6" stroke-linecap="round"/>
<path d="M591,610 q-0.9,-13 -1.8,-25" fill="none" stroke="#2d3027" stroke-width="1.4" stroke-linecap="round"/>
<path d="M444,601 q2.1,-8 4.1,-16" fill="none" stroke="#2d3027" stroke-width="2.2" stroke-linecap="round"/>
<path d="M182,601 q0.6,-6 1.1,-12" fill="none" stroke="#2d3027" stroke-width="2.2" stroke-linecap="round"/>
<path d="M435,603 q1.8,-4 3.6,-9" fill="none" stroke="#2d3027" stroke-width="1.5" stroke-linecap="round"/>
<path d="M576,600 q-1.4,-9 -2.7,-18" fill="none" stroke="#2d3027" stroke-width="1.7" stroke-linecap="round"/>
<path d="M116,607 q1.7,-5 3.4,-10" fill="none" stroke="#2d3027" stroke-width="1.4" stroke-linecap="round"/>
<path d="M589,613 q-0.0,-4 -0.0,-8" fill="none" stroke="#2d3027" stroke-width="2.2" stroke-linecap="round"/>
<path d="M334,602 q-2.3,-12 -4.6,-23" fill="none" stroke="#2d3027" stroke-width="1.8" stroke-linecap="round"/>
<path d="M190,611 q-2.5,-10 -5.0,-19" fill="none" stroke="#2d3027" stroke-width="1.7" stroke-linecap="round"/>
<path d="M10,604 q0.7,-8 1.4,-15" fill="none" stroke="#2d3027" stroke-width="1.9" stroke-linecap="round"/>
<path d="M73,609 q2.3,-9 4.6,-17" fill="none" stroke="#2d3027" stroke-width="1.3" stroke-linecap="round"/>
<path d="M238,612 q0.1,-7 0.2,-14" fill="none" stroke="#2d3027" stroke-width="1.7" stroke-linecap="round"/>
<path d="M-2,604 q-2.2,-9 -4.3,-19" fill="none" stroke="#2d3027" stroke-width="2.0" stroke-linecap="round"/>
<path d="M408,600 q-2.8,-8 -5.7,-16" fill="none" stroke="#2d3027" stroke-width="1.5" stroke-linecap="round"/>
<path d="M512,607 q1.1,-4 2.1,-9" fill="none" stroke="#2d3027" stroke-width="1.9" stroke-linecap="round"/>
<path d="M346,608 q-1.2,-8 -2.4,-15" fill="none" stroke="#2d3027" stroke-width="2.0" stroke-linecap="round"/>
<path d="M408,602 q2.0,-7 3.9,-15" fill="none" stroke="#2d3027" stroke-width="1.5" stroke-linecap="round"/>
<path d="M339,603 q-2.0,-12 -4.1,-23" fill="none" stroke="#2d3027" stroke-width="2.1" stroke-linecap="round"/>
<path d="M294,601 q-0.6,-12 -1.2,-23" fill="none" stroke="#2d3027" stroke-width="1.7" stroke-linecap="round"/>
<path d="M323,602 q-1.9,-9 -3.9,-18" fill="none" stroke="#2d3027" stroke-width="1.4" stroke-linecap="round"/>
<path d="M597,610 q0.1,-5 0.2,-10" fill="none" stroke="#2d3027" stroke-width="1.5" stroke-linecap="round"/>
<path d="M420,613 q-0.0,-6 -0.1,-13" fill="none" stroke="#2d3027" stroke-width="1.4" stroke-linecap="round"/>
<path d="M44,600 q-1.1,-12 -2.3,-25" fill="none" stroke="#2d3027" stroke-width="1.7" stroke-linecap="round"/>
<path d="M10,614 q-2.0,-7 -3.9,-14" fill="none" stroke="#2d3027" stroke-width="2.1" stroke-linecap="round"/>
<path d="M62,600 q2.6,-12 5.1,-24" fill="none" stroke="#2d3027" stroke-width="1.3" stroke-linecap="round"/>
<path d="M161,610 q0.8,-4 1.6,-8" fill="none" stroke="#2d3027" stroke-width="2.1" stroke-linecap="round"/>
<path d="M92,612 q1.8,-13 3.5,-25" fill="none" stroke="#2d3027" stroke-width="1.3" stroke-linecap="round"/>
<path d="M456,607 q0.3,-8 0.6,-15" fill="none" stroke="#2d3027" stroke-width="1.3" stroke-linecap="round"/>
<path d="M355,606 q1.9,-5 3.8,-10" fill="none" stroke="#2d3027" stroke-width="1.2" stroke-linecap="round"/>
<path d="M198,601 q2.0,-11 4.0,-22" fill="none" stroke="#2d3027" stroke-width="1.4" stroke-linecap="round"/>
<path d="M599,609 q2.9,-10 5.9,-20" fill="none" stroke="#2d3027" stroke-width="2.2" stroke-linecap="round"/>
<path d="M310,610 q-1.3,-12 -2.6,-24" fill="none" stroke="#2d3027" stroke-width="1.3" stroke-linecap="round"/>
<path d="M100,610 q-0.8,-6 -1.5,-13" fill="none" stroke="#2d3027" stroke-width="2.3" stroke-linecap="round"/>
<path d="M119,609 q2.7,-6 5.5,-12" fill="none" stroke="#2d3027" stroke-width="2.0" stroke-linecap="round"/>
<path d="M104,604 q0.7,-12 1.3,-24" fill="none" stroke="#2d3027" stroke-width="2.0" stroke-linecap="round"/>
<path d="M156,612 q1.7,-6 3.3,-12" fill="none" stroke="#2d3027" stroke-width="1.2" stroke-linecap="round"/>
<path d="M253,602 q-0.2,-11 -0.4,-22" fill="none" stroke="#2d3027" stroke-width="1.7" stroke-linecap="round"/>
<path d="M536,602 q-1.5,-12 -2.9,-24" fill="none" stroke="#2d3027" stroke-width="1.6" stroke-linecap="round"/>
<path d="M364,605 q0.6,-11 1.1,-21" fill="none" stroke="#2d3027" stroke-width="1.5" stroke-linecap="round"/>
<path d="M135,606 q-0.2,-4 -0.4,-8" fill="none" stroke="#2d3027" stroke-width="2.1" stroke-linecap="round"/>
<path d="M283,609 q2.7,-7 5.4,-14" fill="none" stroke="#2d3027" stroke-width="2.3" stroke-linecap="round"/>
<path d="M172,606 q-2.2,-5 -4.5,-10" fill="none" stroke="#2d3027" stroke-width="1.2" stroke-linecap="round"/>
<path d="M192,606 q-1.5,-10 -2.9,-19" fill="none" stroke="#2d3027" stroke-width="2.0" stroke-linecap="round"/>
<path d="M510,604 q2.3,-10 4.5,-20" fill="none" stroke="#2d3027" stroke-width="1.9" stroke-linecap="round"/>
<path d="M594,600 q-1.3,-12 -2.6,-24" fill="none" stroke="#2d3027" stroke-width="1.7" stroke-linecap="round"/>
<path d="M306,603 q0.6,-5 1.3,-11" fill="none" stroke="#2d3027" stroke-width="1.5" stroke-linecap="round"/>
<path d="M591,602 q-0.0,-6 -0.1,-12" fill="none" stroke="#2d3027" stroke-width="1.7" stroke-linecap="round"/>
<path d="M228,606 q-1.7,-4 -3.5,-8" fill="none" stroke="#2d3027" stroke-width="1.7" stroke-linecap="round"/>
<path d="M274,612 q2.1,-6 4.2,-12" fill="none" stroke="#2d3027" stroke-width="1.5" stroke-linecap="round"/>
<path d="M227,613 q2.2,-9 4.3,-19" fill="none" stroke="#2d3027" stroke-width="1.7" stroke-linecap="round"/>
<path d="M16,612 q-2.5,-11 -5.0,-21" fill="none" stroke="#2d3027" stroke-width="2.3" stroke-linecap="round"/>
<path d="M407,609 q-2.3,-7 -4.6,-14" fill="none" stroke="#2d3027" stroke-width="1.2" stroke-linecap="round"/>
<path d="M582,611 q-1.4,-10 -2.8,-20" fill="none" stroke="#2d3027" stroke-width="1.9" stroke-linecap="round"/>
<path d="M312,601 q0.1,-10 0.1,-19" fill="none" stroke="#2d3027" stroke-width="1.2" stroke-linecap="round"/>
<path d="M502,604 q3.0,-6 5.9,-11" fill="none" stroke="#2d3027" stroke-width="2.2" stroke-linecap="round"/>
<path d="M356,610 q0.7,-7 1.4,-14" fill="none" stroke="#2d3027" stroke-width="1.8" stroke-linecap="round"/>
<path d="M153,601 q-0.9,-10 -1.7,-20" fill="none" stroke="#2d3027" stroke-width="1.6" stroke-linecap="round"/>
<path d="M193,613 q0.0,-13 0.0,-26" fill="none" stroke="#2d3027" stroke-width="1.9" stroke-linecap="round"/>
<path d="M278,609 q0.7,-6 1.3,-11" fill="none" stroke="#2d3027" stroke-width="1.4" stroke-linecap="round"/>
<path d="M345,609 q-0.8,-10 -1.5,-20" fill="none" stroke="#2d3027" stroke-width="1.4" stroke-linecap="round"/>
<path d="M343,608 q1.7,-8 3.4,-16" fill="none" stroke="#2d3027" stroke-width="2.1" stroke-linecap="round"/>
<path d="M499,612 q-1.0,-6 -2.0,-11" fill="none" stroke="#2d3027" stroke-width="1.9" stroke-linecap="round"/>
<path d="M61,604 q2.8,-11 5.7,-22" fill="none" stroke="#2d3027" stroke-width="1.5" stroke-linecap="round"/>
<path d="M411,608 q-0.9,-9 -1.7,-17" fill="none" stroke="#2d3027" stroke-width="2.3" stroke-linecap="round"/>
<path d="M234,606 q0.3,-9 0.6,-19" fill="none" stroke="#2d3027" stroke-width="1.4" stroke-linecap="round"/>
<path d="M337,605 q0.1,-5 0.2,-11" fill="none" stroke="#2d3027" stroke-width="1.9" stroke-linecap="round"/>
<rect width="600" height="800" fill="url(#vg)"/>
<rect width="600" height="800" filter="url(#gr)" opacity=".9"/></svg>