<svg xmlns="http://www.w3.org/2000/svg" viewBox="0 0 600 800" width="600" height="800">
<defs><linearGradient id="sk" x1="0" y1="0" x2="0" y2="1"><stop offset="0" stop-color="#f3c9b3"/><stop offset="1" stop-color="#a77a8f"/></linearGradient><linearGradient id="wt" x1="0" y1="0" x2="0" y2="1"><stop offset="0" stop-color="#5a4a62"/><stop offset="1" stop-color="#1d1a24"/></linearGradient><radialGradient id="sg" cx=".5" cy=".5" r=".5"><stop offset="0" stop-color="#fde3c4" stop-opacity=".55"/><stop offset="1" stop-color="#fde3c4" stop-opacity="0"/></radialGradient><linearGradient id="hz" x1="0" y1="0" x2="0" y2="1"><stop offset="0" stop-color="#a77a8f" stop-opacity="0"/><stop offset=".6" stop-color="#a77a8f" stop-opacity=".55"/><stop offset="1" stop-color="#a77a8f" stop-opacity="0"/></linearGradient><radialGradient id="vg" cx=".5" cy=".42" r=".75"><stop offset=".6" stop-color="#000" stop-opacity="0"/><stop offset="1" stop-color="#000" stop-opacity=".22"/></radialGradient><filter id="gr"><feTurbulence type="fractalNoise" baseFrequency=".9" numOctaves="2" seed="78"/><feColorMatrix values="0 0 0 0 0  0 0 0 0 0  0 0 0 0 0  0 0 0 .07 0"/><feComposite in2="SourceGraphic" operator="in"/></filter></defs>
<rect width="600" height="800" fill="url(#sk)"/>
<circle cx="158" cy="189" r="109" fill="url(#sg)"/>
<circle cx="158" cy="189" r="34" fill="#fde3c4" opacity=".92"/>
<ellipse cx="316" cy="133" rx="132" ry="21" fill="#fff" opacity=".35"/><ellipse cx="355" cy="125" rx="66" ry="18" fill="#fff" opacity=".3"/>
<ellipse cx="436" cy="275" rx="91" ry="15" fill="#fff" opacity=".35"/><ellipse cx="463" cy="267" rx="46" ry="13" fill="#fff" opacity=".3"/>
<ellipse cx="2" cy="104" rx="108" ry="17" fill="#fff" opacity=".35"/><ellipse cx="35" cy="96" rx="54" ry="15" fill="#fff" opacity=".3"/>
<ellipse cx="33" cy="209" rx="97" ry="16" fill="#fff" opacity=".35"/><ellipse cx="62" cy="201" rx="49" ry="14" fill="#fff" opacity=".3"/>
<path d="M384,137 q4,-4 9,0 q4,-4 9,0" fill="none" stroke="#1d1a24" stroke-width="2" opacity=".55"/>
<path d="M204,260 q7,-7 13,0 q7,-7 13,0" fill="none" stroke="#1d1a24" stroke-width="2" opacity=".55"/>
<path d="M391,171 q4,-4 8,0 q4,-4 8,0" fill="none" stroke="#1d1a24" stroke-width="2" opacity=".55"/>
<path d="M303,200 q6,-6 12,0 q6,-6 12,0" fill="none" stroke="#1d1a24" stroke-width="2" opacity=".55"/>
<path d="M176,263 q5,-5 11,0 q5,-5 11,0" fill="none" stroke="#1d1a24" stroke-width="2" opacity=".55"/>
<path d="M-20,800 L-20,356 L20,345 L60,344 L100,334 L140,327 L180,325 L220,323 L260,319 L300,323 L340,319 L380,304 L420,303 L460,306 L500,297 L540,298 L580,304 L620,305 L640,800 Z" fill="#8a6a7f" opacity=".55"/>
<rect x="0" y="330" width="600" height="120" fill="url(#hz)"/>
<path d="M-20,470 L62,470 L166,313 L222,246 L270,309 L383,470 L271,470 L365,286 L415,208 L459,281 L560,470 L620,470 L620,800 L-20,800 Z" fill="#5a4a62"/>
<path d="M-20,800 L-20,608 Q300.0,568 620,602 L620,800 Z" fill="#1d1a24"/>
<rect x="95" y="640" width="179" height="1.5" fill="#fff" opacity=".05"/>
<rect x="315" y="664" width="63" height="1.5" fill="#fff" opacity=".05"/>
<rect x="370" y="688" width="135" height="1.5" fill="#fff" opacity=".05"/>
<rect x="379" y="712" width="113" height="1.5" fill="#fff" opacity=".05"/>
<rect x="121" y="736" width="98" height="1.5" fill="#fff" opacity=".05"/>
<rect x="239" y="760" width="176" height="1.5" fill="#fff" opacity=".05"/>
<path d="M487,610 q-0.6,-10 -1.1,-20" fill="none" stroke="#1d1a24" stroke-width="1.5" stroke-linecap="round"/>
<path d="M589,606 q1.0,-6 1.9,-13" fill="none" stroke="#1d1a24" stroke-width="1.5" stroke-linecap="round"/>
<path d="M310,608 q0.2,-11 0.4,-22" fill="none" stroke="#1d1a24" stroke-width="2.1" stroke-linecap="round"/>
<path d="M318,609 q-2.2,-10 -4.3,-20" fill="none" stroke="#1d1a24" stroke-width="1.7" stroke-linecap="round"/>
<path d="M96,603 q0.6,-12 1.2,-24" fill="none" stroke="#1d1a24" stroke-width="2.1" stroke-linecap="round"/>
<path d="M279,609 q0.9,-11 1.8,-22" fill="none" stroke="#1d1a24" stroke-width="2.2" stroke-linecap="round"/>
<path d="M107,607 q-0.4,-13 -0.8,-26" fill="none" stroke="#1d1a24" stroke-width="2.1" stroke-linecap="round"/>
<path d="M416,603 q2.7,-7 5.4,-14" fill="none" stroke="#1d1a24" stroke-width="2.2" stroke-linecap="round"/>
<path d="M155,608 q2.3,-11 4.7,-21" fill="none" stroke="#1d1a24" stroke-width="2.0" stroke-linecap="round"/>
<path d="M282,605 q-0.9,-6 -1.7,-13" fill="none" stroke="#1d1a24" stroke-width="1.5" stroke-linecap="round"/>
<path d="M102,600 q2.4,-5 4.8,-11" fill="none" stroke="#1d1a24" stroke-width="1.8" stroke-linecap="round"/>
<path d="M513,603 q-0.7,-5 -1.3,-11" fill="none" stroke="#1d1a24" stroke-width="1.6" stroke-linecap="round"/>
<path d="M252,603 q-1.4,-6 -2.9,-13" fill="none" stroke="#1d1a24" stroke-width="1.8" stroke-linecap="round"/>
<path d="M248,605 q-0.8,-5 -1.6,-10" fill="none" stroke="#1d1a24" stroke-width="1.5" stroke-linecap="round"/>
<path d="M290,610 q2.2,-8 4.3,-16" fill="none" stroke="#1d1a24" stroke-width="1.9" stroke-linecap="round"/>
<path d="M237,612 q0.6,-11 1.1,-21" fill="none" stroke="#1d1a24" stroke-width="1.8" stroke-linecap="round"/>
<path d="M111,601 q2.7,-11 5.4,-22" fill="none" stroke="#1d1a24" stroke-width="1.3" stroke-linecap="round"/>
<path d="M357,601 q-0.1,-10 -0.2,-21" fill="none" stroke="#1d1a24" stroke-width="1.5" stroke-linecap="round"/>
<path d="M397,611 q2.6,-9 5.2,-18" fill="none" stroke="#1d1a24" stroke-width="1.2" stroke-linecap="round"/>
<path d="M312,604 q-1.2,-6 -2.4,-12" fill="none" stroke="#1d1a24" stroke-width="1.8" stroke-linecap="round"/>
<path d="M604,607 q0.6,-5 1.3,-10" fill="none" stroke="#1d1a24" stroke-width="2.1" stroke-linecap="round"/>
<path d="M60,606 q1.2,-9 2.4,-19" fill="none" stroke="#1d1a24" stroke-width="2.0" stroke-linecap="round"/>
<path d="M330,606 q-2.8,-12 -5.6,-25" fill="none" stroke="#1d1a24" stroke-width="1.4" stroke-linecap="round"/>
<path d="M232,609 q-0.3,-5 -0.6,-10" fill="none" stroke="#1d1a24" stroke-width="1.3" stroke-linecap="round"/>
<path d="M13,611 q-1.1,-12 -2.1,-23" fill="none" stroke="#1d1a24" stroke-width="2.3" stroke-linecap="round"/>
<path d="M268,610 q-0.6,-10 -1.1,-20" fill="none" stroke="#1d1a24" stroke-width="1.6" stroke-linecap="round"/>
<path d="M555,608 q2.2,-9 4.4,-17" fill="none" stroke="#1d1a24" stroke-width="2.3" stroke-linecap="round"/>
<path d="M289,600 q2.4,-7 4.9,-14" fill="none" stroke="#1d1a24" stroke-width="2.0" stroke-linecap="round"/>
<path d="M149,605 q-2.6,-9 -5.2,-18" fill="none" stroke="#1d1a24" stroke-width="2.2" stroke-linecap="round"/>
<path d="M298,612 q1.2,-6 2.4,-12" fill="none" stroke="#1d1a24" stroke-width="1.3" stroke-linecap="round"/>
<path d="M318,609 q1.8,-12 3.5,-24" fill="none" stroke="#1d1a24" stroke-width="1.5" stroke-linecap="round"/>
<path d="M447,605 q1.7,-9 3.4,-18" fill="none" stroke="#1d1a24" stroke-width="1.3" stroke-linecap="round"/>
<path d="M221,607 q-1.6,-9 -3.2,-18" fill="none" stroke="#1d1a24" stroke-width="1.3" stroke-linecap="round"/>
<path d="M435,611 q-1.4,-5 -2.7,-11" fill="none" stroke="#1d1a24" stroke-width="1.4" stroke-linecap="round"/>
<path d="M228,610 q0.1,-11 0.3,-22" fill="none" stroke="#1d1a24" stroke-width="2.4" stroke-linecap="round"/>
<path d="M547,601 q0.7,-8 1.5,-16" fill="none" stroke="#1d1a24" stroke-width="1.8" stroke-linecap="round"/>
<path d="M444,607 q0.0,-7 0.0,-13" fill="none" stroke="#1d1a24" stroke-width="1.5" stroke-linecap="round"/>
<path d="M452,600 q-0.7,-11 -1.4,-22" fill="none" stroke="#1d1a24" stroke-width="2.0" stroke-linecap="round"/>
<path d="M37,601 q-2.4,-11 -4.9,-21" fill="none" stroke="#1d1a24" stroke-width="2.0" stroke-linecap="round"/>
<path d="M407,605 q-1.1,-12 -2.2,-25" fill="none" stroke="#1d1a24" stroke-width="1.3" stroke-linecap="round"/>
<path d="M194,613 q0.0,-9 0.1,-19" fill="none" stroke="#1d1a24" stroke-width="2.1" stroke-linecap="round"/>
<path d="M108,604 q1.6,-11 3.2,-22" fill="none" stroke="#1d1a24" stroke-width="2.2" stroke-linecap="round"/>
<path d="M90,602 q-1.1,-11 -2.1,-23" fill="none" stroke="#1d1a24" stroke-width="1.5" stroke-linecap="round"/>
<path d="M513,606 q1.9,-4 3.8,-8" fill="none" stroke="#1d1a24" stroke-width="1.5" stroke-linecap="round"/>
<path d="M552,607 q-2.8,-12 -5.7,-24" fill="none" stroke="#1d1a24" stroke-width="1.6" stroke-linecap="round"/>
<path d="M450,609 q0.1,-10 0.2,-19" fill="none" stroke="#1d1a24" stroke-width="2.3" stroke-linecap="round"/>
<path d="M140,605 q2.4,-6 4.7,-12" fill="none" stroke="#1d1a24" stroke-width="1.3" stroke-linecap="round"/>
<path d="M191,603 q-0.5,-12 -1.0,-23" fill="none" stroke="#1d1a24" stroke-width="2.2" stroke-linecap="round"/>
<path d="M23,610 q-2.4,-10 -4.8,-20" fill="none" stroke="#1d1a24" stroke-width="1.3" stroke-linecap="round"/>
<path d="M134,607 q-2.5,-8 -5.1,-16" fill="none" stroke="#1d1a24" stroke-width="1.5" stroke-linecap="round"/>
<path d="M226,601 q-2.1,-13 -4.3,-26" fill="none" stroke="#1d1a24" stroke-width="1.4" stroke-linecap="round"/>
<path d="M230,605 q-0.6,-13 -1.3,-26" fill="none" stroke="#1d1a24" stroke-width="2.1" stroke-linecap="round"/>
<path d="M199,606 q1.1,-13 2.2,-26" fill="none" stroke="#1d1a24" stroke-width="1.7" stroke-linecap="round"/>
<path d="M282,606 q-1.7,-6 -3.4,-13" fill="none" stroke="#1d1a24" stroke-width="2.1" stroke-linecap="round"/>
<path d="M189,602 q1.6,-12 3.2,-23" fill="none" stroke="#1d1a24" stroke-width="1.7" stroke-linecap="round"/>
<path d="M401,609 q-1.4,-5 -2.7,-10" fill="none" stroke="#1d1a24" stroke-width="1.2" stroke-linecap="round"/>
<path d="M472,603 q-1.9,-12 -3.9,-23" fill="none" stroke="#1d1a24" stroke-width="1.6" stroke-linecap="round"/>
<path d="M402,613 q1.0,-7 1.9,-14" fill="none" stroke="#1d1a24" stroke-width="2.1" stroke-linecap="round"/>
<path d="M30,611 q-0.9,-7 -1.8,-14" fill="none" stroke="#1d1a24" stroke-width="1.8" stroke-linecap="round"/>
<path d="M457,614 q1.0,-5 1.9,-11" fill="none" stroke="#1d1a24" stroke-width="2.4" stroke-linecap="round"/>
<path d="M403,608 q-3.0,-5 -5.9,-10" fill="none" stroke="#1d1a24" stroke-width="1.8" stroke-linecap="round"/>
<path d="M-9,605 q-2.2,-12 -4.4,-23" fill="none" stroke="#1d1a24" stroke-width="2.2" stroke-linecap="round"/>
<path d="M606,608 q-2.0,-9 -4.0,-19" fill="none" stroke="#1d1a24" stroke-width="1.4" stroke-linecap="round"/>
<path d="M110,609 q-1.7,-7 -3.4,-14" fill="none" stroke="#1d1a24" stroke-width="1.4" stroke-linecap="round"/>
<path d="M209,605 q2.5,-12 5.1,-24" fill="none" stroke="#1d1a24" stroke-width="1.4" stroke-linecap="round"/>
<path d="M584,606 q0.9,-8 1.9,-16" fill="none" stroke="#1d1a24" stroke-width="1.9" stroke-linecap="round"/>
<path d="M431,610 q2.4,-6 4.9,-12" fill="none" stroke="#1d1a24" stroke-width="2.3" stroke-linecap="round"/>
<path d="M332,612 q-0.8,-10 -1.5,-20" fill="none" stroke="#1d1a24" stroke-width="1.7" stroke-linecap="round"/>
<path d="M501,603 q-0.6,-10 -1.3,-21" fill="none" stroke="#1d1a24" stroke-width="2.2" stroke-linecap="round"/>
<path d="M601,608 q2.0,-11 3.9,-22" fill="none" stroke="#1d1a24" stroke-width="1.6" stroke-linecap="round"/>
<rect width="600" height="800" fill="url(#vg)"/>
<rect width="600" height="800" filter="url(#gr)" opacity=".9"/></svg>