<svg xmlns="http://www.w3.org/2000/svg" viewBox="0 0 600 800" width="600" height="800">
<defs><linearGradient id="sk" x1="0" y1="0" x2="0" y2="1"><stop offset="0" stop-color="#f4e6d8"/><stop offset="1" stop-color="#e8c9b6"/></linearGradient><linearGradient id="wt" x1="0" y1="0" x2="0" y2="1"><stop offset="0" stop-color="#8f9a7a"/><stop offset="1" stop-color="#2d3027"/></linearGradient><radialGradient id="sg" cx=".5" cy=".5" r=".5"><stop offset="0" stop-color="#fbefe2" stop-opacity=".55"/><stop offset="1" stop-color="#fbefe2" stop-opacity="0"/></radialGradient><linearGradient id="hz" x1="0" y1="0" x2="0" y2="1"><stop offset="0" stop-color="#e8c9b6" stop-opacity="0"/><stop offset=".6" stop-color="#e8c9b6" stop-opacity=".55"/><stop offset="1" stop-color="#e8c9b6" stop-opacity="0"/></linearGradient><radialGradient id="vg" cx=".5" cy=".42" r=".75"><stop offset=".6" stop-color="#000" stop-opacity="0"/><stop offset="1" stop-color="#000" stop-opacity=".22"/></radialGradient><filter id="gr"><feTurbulence type="fractalNoise" baseFrequency=".9" numOctaves="2" seed="40"/><feColorMatrix values="0 0 0 0 0  0 0 0 0 0  0 0 0 0 0  0 0 0 .07 0"/><feComposite in2="SourceGraphic" operator="in"/></filter></defs>
<rect width="600" height="800" fill="url(#sk)"/>
<circle cx="382" cy="216" r="128" fill="url(#sg)"/>
<circle cx="382" cy="216" r="40" fill="#fbefe2" opacity=".92"/>
<ellipse cx="220" cy="147" rx="89" ry="14" fill="#fff" opacity=".35"/><ellipse cx="247" cy="139" rx="45" ry="13" fill="#fff" opacity=".3"/>
<ellipse cx="9" cy="289" rx="108" ry="17" fill="#fff" opacity=".35"/><ellipse cx="41" cy="281" rx="54" ry="15" fill="#fff" opacity=".3"/>
<path d="M359,275 q5,-5 11,0 q5,-5 11,0" fill="none" stroke="#2d3027" stroke-width="2" opacity=".55"/>
<path d="M299,282 q5,-5 10,0 q5,-5 10,0" fill="none" stroke="#2d3027" stroke-width="2" opacity=".55"/>
<path d="M495,309 q4,-4 9,0 q4,-4 9,0" fill="none" stroke="#2d3027" stroke-width="2" opacity=".55"/>
<path d="M-20,800 L-20,362 L20,363 L60,372 L100,376 L140,388 L180,396 L220,386 L260,373 L300,365 L340,377 L380,389 L420,396 L460,396 L500,396 L540,396 L580,393 L620,379 L640,800 Z" fill="#c9b3a8" opacity=".55"/>
<rect x="0" y="330" width="600" height="120" fill="url(#hz)"/>
<path d="M-20,800 L-20,448 L10,444 L40,449 L70,442 L100,430 L130,426 L160,428 L190,418 L220,412 L250,411 L280,412 L310,403 L340,405 L370,399 L400,388 L430,401 L460,404 L490,398 L520,396 L550,392 L580,383 L610,383 L640,800 Z" fill="#8f9a7a"/>
<rect x="0" y="520" width="600" height="280" fill="url(#wt)"/>
<rect x="-10" y="386" width="80" height="134" fill="#efe9dc"/><path d="M-16,386 h92 l-10,-16 h-72 z" fill="#2d3027"/><rect x="16" y="420" width="16" height="20" fill="#2d3027" opacity=".7"/>
<rect x="75" y="405" width="80" height="115" fill="#efe9dc"/><path d="M69,405 h92 l-10,-16 h-72 z" fill="#2d3027"/><rect x="101" y="439" width="16" height="20" fill="#2d3027" opacity=".7"/>
<rect x="160" y="426" width="80" height="94" fill="#efe9dc"/><path d="M154,426 h92 l-10,-16 h-72 z" fill="#2d3027"/><rect x="186" y="460" width="16" height="20" fill="#2d3027" opacity=".7"/>
<rect x="360" y="406" width="80" height="114" fill="#efe9dc"/><path d="M354,406 h92 l-10,-16 h-72 z" fill="#2d3027"/><rect x="386" y="440" width="16" height="20" fill="#2d3027" opacity=".7"/>
<rect x="445" y="380" width="80" height="140" fill="#efe9dc"/><path d="M439,380 h92 l-10,-16 h-72 z" fill="#2d3027"/><rect x="471" y="414" width="16" height="20" fill="#2d3027" opacity=".7"/>
<rect x="530" y="394" width="80" height="126" fill="#efe9dc"/><path d="M524,394 h92 l-10,-16 h-72 z" fill="#2d3027"/><rect x="556" y="428" width="16" height="20" fill="#2d3027" opacity=".7"/>
<path d="M190,528 Q300,430 410,528 L392,528 Q300,456 208,528 Z" fill="#b8b0a2"/><path d="M190,528 Q300,610 410,528" fill="none" stroke="#b8b0a2" stroke-width="4" opacity=".4"/>
<path d="M250,590 h70 l-10,8 h-50 z" fill="#2d3027"/>
<circle cx="40" cy="360" r="7" fill="#c8432f" opacity=".85"/>
<circle cx="140" cy="360" r="7" fill="#c8432f" opacity=".85"/>
<circle cx="240" cy="360" r="7" fill="#c8432f" opacity=".85"/>
<circle cx="340" cy="360" r="7" fill="#c8432f" opacity=".85"/>
<circle cx="440" cy="360" r="7" fill="#c8432f" opacity=".85"/>
<circle cx="540" cy="360" r="7" fill="#c8432f" opacity=".85"/>
<path d="M-20,800 L-20,593 Q300.0,574 620,609 L620,800 Z" fill="#2d3027"/>
<rect x="48" y="640" width="136" height="1.5" fill="#fff" opacity=".05"/>
<rect x="251" y="664" width="150" height="1.5" fill="#fff" opacity=".05"/>
<rect x="98" y="688" width="174" height="1.5" fill="#fff" opacity=".05"/>
<rect x="174" y="712" width="83" height="1.5" fill="#fff" opacity=".05"/>
<rect x="243" y="736" width="131" height="1.5" fill="#fff" opacity=".05"/>
<rect x="374" y="760" width="179" height="1.5" fill="#fff" opacity=".05"/>
<path d="M289,603 q2.7,-4 5.4,-8" fill="none" stroke="#2d3027" stroke-width="1.6" stroke-linecap="round"/>
<path d="M483,605 q-1.7,-13 -3.5,-25" fill="none" stroke="#2d3027" stroke-width="2.0" stroke-linecap="round"/>
<path d="M503,602 q-1.4,-12 -2.7,-24" fill="none" stroke="#2d3027" stroke-width="2.3" stroke-linecap="round"/>
<path d="M402,604 q-0.0,-11 -0.0,-22" fill="none" stroke="#2d3027" stroke-width="1.9" stroke-linecap="round"/>
<path d="M405,609 q0.3,-11 0.6,-22" fill="none" stroke="#2d3027" stroke-width="1.6" stroke-linecap="round"/>
<path d="M593,600 q-1.9,-11 -3.9,-23" fill="none" stroke="#2d3027" stroke-width="1.2" stroke-linecap="round"/>
<path d="M378,606 q-1.6,-9 -3.1,-18" fill="none" stroke="#2d3027" stroke-width="1.5" stroke-linecap="round"/>
<path d="M182,613 q0.3,-8 0.6,-16" fill="none" stroke="#2d3027" stroke-width="1.7" stroke-linecap="round"/>
<path d="M86,606 q-0.7,-10 -1.5,-19" fill="none" stroke="#2d3027" stroke-width="1.5" stroke-linecap="round"/>
<path d="M388,607 q-2.0,-10 -4.0,-20" fill="none" stroke="#2d3027" stroke-width="2.2" stroke-linecap="round"/>
<path d="M94,609 q-0.9,-5 -1.9,-10" fill="none" stroke="#2d3027" stroke-width="2.0" stroke-linecap="round"/>
<path d="M140,612 q-1.2,-5 -2.3,-10" fill="none" stroke="#2d3027" stroke-width="2.1" stroke-linecap="round"/>
<path d="M519,610 q-1.1,-11 -2.3,-22" fill="none" stroke="#2d3027" stroke-width="2.3" stroke-linecap="round"/>
<path d="M34,606 q-1.7,-12 -3.4,-24" fill="none" stroke="#2d3027" stroke-width="1.9" stroke-linecap="round"/>
<path d="M333,600 q-2.9,-10 -5.8,-21" fill="none" stroke="#2d3027" stroke-width="2.1" stroke-linecap="round"/>
<path d="M502,608 q-2.4,-12 -4.9,-23" fill="none" stroke="#2d3027" stroke-width="2.3" stroke-linecap="round"/>
<path d="M209,609 q0.6,-7 1.3,-14" fill="none" stroke="#2d3027" stroke-width="1.7" stroke-linecap="round"/>
<path d="M48,608 q-0.7,-13 -1.4,-25" fill="none" stroke="#2d3027" stroke-width="2.1" stroke-linecap="round"/>
<path d="M289,601 q-1.1,-9 -2.2,-17" fill="none" stroke="#2d3027" stroke-width="2.3" stroke-linecap="round"/>
<path d="M111,612 q-1.7,-8 -3.3,-16" fill="none" stroke="#2d3027" stroke-width="2.0" stroke-linecap="round"/>
<path d="M505,609 q-1.1,-9 -2.3,-19" fill="none" stroke="#2d3027" stroke-width="2.1" stroke-linecap="round"/>
<path d="M220,604 q-2.3,-7 -4.6,-14" fill="none" stroke="#2d3027" stroke-width="1.7" stroke-linecap="round"/>
<path d="M529,607 q2.6,-10 5.1,-20" fill="none" stroke="#2d3027" stroke-width="1.7" stroke-linecap="round"/>
<path d="M189,603 q-0.8,-5 -1.5,-11" fill="none" stroke="#2d3027" stroke-width="1.5" stroke-linecap="round"/>
<path d="M-8,601 q-0.9,-11 -1.8,-21" fill="none" stroke="#2d3027" stroke-width="1.2" stroke-linecap="round"/>
<path d="M236,601 q-2.6,-13 -5.1,-26" fill="none" stroke="#2d3027" stroke-width="2.4" stroke-linecap="round"/>
<path d="M26,614 q2.5,-6 5.0,-12" fill="none" stroke="#2d3027" stroke-width="1.4" stroke-linecap="round"/>
<path d="M284,607 q-0.5,-11 -1.1,-22" fill="none" stroke="#2d3027" stroke-width="1.6" stroke-linecap="round"/>
<path d="M177,607 q1.0,-5 2.0,-11" fill="none" stroke="#2d3027" stroke-width="1.9" stroke-linecap="round"/>
<path d="M293,614 q0.7,-10 1.3,-20" fill="none" stroke="#2d3027" stroke-width="2.2" stroke-linecap="round"/>
<path d="M596,607 q0.4,-7 0.8,-14" fill="none" stroke="#2d3027" stroke-width="2.2" stroke-linecap="round"/>
<path d="M486,611 q-1.7,-10 -3.4,-20" fill="none" stroke="#2d3027" stroke-width="1.9" stroke-linecap="round"/>
<path d="M254,605 q-0.3,-12 -0.6,-24" fill="none" stroke="#2d3027" stroke-width="1.2" stroke-linecap="round"/>
<path d="M41,602 q-2.7,-5 -5.5,-11" fill="none" stroke="#2d3027" stroke-width="1.6" stroke-linecap="round"/>
<path d="M429,614 q-2.5,-5 -5.0,-11" fill="none" stroke="#2d3027" stroke-width="1.5" stroke-linecap="round"/>
<path d="M85,603 q-1.2,-11 -2.3,-22" fill="none" stroke="#2d3027" stroke-width="2.0" stroke-linecap="round"/>
<path d="M320,611 q-0.5,-8 -1.0,-16" fill="none" stroke="#2d3027" stroke-width="2.2" stroke-linecap="round"/>
<path d="M252,608 q-1.9,-10 -3.8,-20" fill="none" stroke="#2d3027" stroke-width="1.7" stroke-linecap="round"/>
<path d="M533,601 q-2.6,-13 -5.2,-26" fill="none" stroke="#2d3027" stroke-width="2.1" stroke-linecap="round"/>
<path d="M574,603 q-2.1,-8 -4.2,-16" fill="none" stroke="#2d3027" stroke-width="2.3" stroke-linecap="round"/>
<path d="M54,609 q2.7,-8 5.3,-17" fill="none" stroke="#2d3027" stroke-width="2.3" stroke-linecap="round"/>
<path d="M284,606 q1.8,-7 3.7,-14" fill="none" stroke="#2d3027" stroke-width="2.1" stroke-linecap="round"/>
<path d="M186,606 q1.2,-7 2.5,-14" fill="none" stroke="#2d3027" stroke-width="1.8" stroke-linecap="round"/>
<path d="M529,611 q1.7,-6 3.3,-12" fill="none" stroke="#2d3027" stroke-width="1.2" stroke-linecap="round"/>
<path d="M243,602 q2.4,-12 4.8,-23" fill="none" stroke="#2d3027" stroke-width="1.6" stroke-linecap="round"/>
<path d="M518,613 q2.8,-10 5.7,-20" fill="none" stroke="#2d3027" stroke-width="1.6" stroke-linecap="round"/>
<path d="M69,613 q-2.1,-9 -4.2,-19" fill="none" stroke="#2d3027" stroke-width="1.5" stroke-linecap="round"/>
<path d="M87,612 q-1.7,-13 -3.5,-25" fill="none" stroke="#2d3027" stroke-width="2.2" stroke-linecap="round"/>
<path d="M45,609 q0.7,-11 1.4,-22" fill="none" stroke="#2d3027" stroke-width="2.4" stroke-linecap="round"/>
<path d="M277,604 q1.1,-13 2.1,-26" fill="none" stroke="#2d3027" stroke-width="1.2" stroke-linecap="round"/>
<path d="M352,601 q-2.7,-11 -5.5,-21" fill="none" stroke="#2d3027" stroke-width="1.3" stroke-linecap="round"/>
<path d="M91,613 q-1.1,-11 -2.1,-22" fill="none" stroke="#2d3027" stroke-width="2.0" stroke-linecap="round"/>
<path d="M525,605 q3.0,-4 5.9,-9" fill="none" stroke="#2d3027" stroke-width="1.5" stroke-linecap="round"/>
<path d="M252,612 q-0.8,-8 -1.6,-16" fill="none" stroke="#2d3027" stroke-width="2.1" stroke-linecap="round"/>
<path d="M375,610 q-1.3,-7 -2.6,-13" fill="none" stroke="#2d3027" stroke-width="1.6" stroke-linecap="round"/>
<path d="M301,614 q-2.9,-9 -5.8,-17" fill="none" stroke="#2d3027" stroke-width="1.5" stroke-linecap="round"/>
<path d="M397,601 q-2.5,-10 -5.0,-19" fill="none" stroke="#2d3027" stroke-width="2.3" stroke-linecap="round"/>
<path d="M27,612 q-0.5,-7 -0.9,-14" fill="none" stroke="#2d3027" stroke-width="2.3" stroke-linecap="round"/>
<path d="M96,613 q1.3,-5 2.5,-9" fill="none" stroke="#2d3027" stroke-width="1.6" stroke-linecap="round"/>
<path d="M581,612 q1.4,-5 2.8,-9" fill="none" stroke="#2d3027" stroke-width="1.3" stroke-linecap="round"/>
<path d="M591,612 q-0.1,-4 -0.2,-9" fill="none" stroke="#2d3027" stroke-width="1.4" stroke-linecap="round"/>
<path d="M424,605 q-0.7,-9 -1.5,-18" fill="none" stroke="#2d3027" stroke-width="2.1" stroke-linecap="round"/>
<path d="M361,606 q-2.6,-4 -5.3,-8" fill="none" stroke="#2d3027" stroke-width="1.5" stroke-linecap="round"/>
<path d="M188,603 q-1.2,-11 -2.4,-21" fill="none" stroke="#2d3027" stroke-width="1.2" stroke-linecap="round"/>
<path d="M371,603 q-2.2,-9 -4.5,-19" fill="none" stroke="#2d3027" stroke-width="1.8" stroke-linecap="round"/>
<path d="M235,610 q-1.8,-6 -3.7,-11" fill="none" stroke="#2d3027" stroke-width="1.4" stroke-linecap="round"/>
<path d="M282,604 q-2.1,-10 -4.1,-21" fill="none" stroke="#2d3027" stroke-width="2.1" stroke-linecap="round"/>
<path d="M293,604 q0.5,-5 0.9,-11" fill="none" stroke="#2d3027" stroke-width="1.6" stroke-linecap="round"/>
<path d="M225,608 q-0.8,-11 -1.6,-22" fill="none" stroke="#2d3027" stroke-width="1.4" stroke-linecap="round"/>
<path d="M56,613 q-2.5,-8 -5.1,-15" fill="none" stroke="#2d3027" stroke-width="1.6" stroke-linecap="round"/>
<rect width="600" height="800" fill="url(#vg)"/>
<rect width="600" height="800" filter="url(#gr)" opacity=".9"/></svg>