<svg xmlns="http://www.w3.org/2000/svg" viewBox="0 0 600 800" width="600" height="800">
<defs><linearGradient id="sk" x1="0" y1="0" x2="0" y2="1"><stop offset="0" stop-color="#f5dcb4"/><stop offset="1" stop-color="#e3a46e"/></linearGradient><linearGradient id="wt" x1="0" y1="0" x2="0" y2="1"><stop offset="0" stop-color="#a8735c"/><stop offset="1" stop-color="#2a1f1a"/></linearGradient><radialGradient id="sg" cx=".5" cy=".5" r=".5"><stop offset="0" stop-color="#fbe9c8" stop-opacity=".55"/><stop offset="1" stop-color="#fbe9c8" stop-opacity="0"/></radialGradient><linearGradient id="hz" x1="0" y1="0" x2="0" y2="1"><stop offset="0" stop-color="#e3a46e" stop-opacity="0"/><stop offset=".6" stop-color="#e3a46e" stop-opacity=".55"/><stop offset="1" stop-color="#e3a46e" stop-opacity="0"/></linearGradient><radialGradient id="vg" cx=".5" cy=".42" r=".75"><stop offset=".6" stop-color="#000" stop-opacity="0"/><stop offset="1" stop-color="#000" stop-opacity=".22"/></radialGradient><filter id="gr"><feTurbulence type="fractalNoise" baseFrequency=".9" numOctaves="2" seed="83"/><feColorMatrix values="0 0 0 0 0  0 0 0 0 0  0 0 0 0 0  0 0 0 .07 0"/><feComposite in2="SourceGraphic" operator="in"/></filter></defs>
<rect width="600" height="800" fill="url(#sk)"/>
<circle cx="169" cy="116" r="154" fill="url(#sg)"/>
<circle cx="169" cy="116" r="48" fill="#fbe9c8" opacity=".92"/>
<ellipse cx="473" cy="101" rx="155" ry="25" fill="#fff" opacity=".35"/><ellipse cx="520" cy="93" rx="78" ry="22" fill="#fff" opacity=".3"/>
<ellipse cx="117" cy="271" rx="118" ry="19" fill="#fff" opacity=".35"/><ellipse cx="152" cy="263" rx="59" ry="17" fill="#fff" opacity=".3"/>
<path d="M99,153 q5,-5 10,0 q5,-5 10,0" fill="none" stroke="#2a1f1a" stroke-width="2" opacity=".55"/>
<path d="M429,249 q5,-5 9,0 q5,-5 9,0" fill="none" stroke="#2a1f1a" stroke-width="2" opacity=".55"/>
<path d="M477,140 q4,-4 8,0 q4,-4 8,0" fill="none" stroke="#2a1f1a" stroke-width="2" opacity=".55"/>
<path d="M389,185 q6,-6 12,0 q6,-6 12,0" fill="none" stroke="#2a1f1a" stroke-width="2" opacity=".55"/>
<path d="M-20,800 L-20,369 L20,359 L60,365 L100,368 L140,382 L180,381 L220,390 L260,395 L300,395 L340,396 L380,396 L420,396 L460,393 L500,396 L540,395 L580,384 L620,389 L640,800 Z" fill="#c98d6e" opacity=".55"/>
<rect x="0" y="330" width="600" height="120" fill="url(#hz)"/>
<path d="M-20,470 L-77,470 L10,292 L57,216 L97,287 L191,470 L1,470 L65,313 L100,246 L130,308 L199,470 L446,470 L515,270 L552,184 L583,264 L657,470 L620,470 L620,800 L-20,800 Z" fill="#a8735c"/>
<path d="M60,580 Q300,430 540,580 Z" fill="#6b4a38"/>
<rect x="237" y="464" width="127" height="26" fill="#2a1f1a"/><path d="M212,464 Q300,448 388,464 L374,458 L226,458 Z" fill="#2a1f1a"/><rect x="265" y="472" width="5" height="9" fill="#e0a03a" opacity=".85"/><rect x="293" y="472" width="5" height="9" fill="#e0a03a" opacity=".85"/><rect x="321" y="472" width="5" height="9" fill="#e0a03a" opacity=".85"/><rect x="247" y="432" width="106" height="26" fill="#2a1f1a"/><path d="M226,432 Q300,416 374,432 L362,426 L238,426 Z" fill="#2a1f1a"/><rect x="270" y="440" width="5" height="9" fill="#e0a03a" opacity=".85"/><rect x="294" y="440" width="5" height="9" fill="#e0a03a" opacity=".85"/><rect x="318" y="440" width="5" height="9" fill="#e0a03a" opacity=".85"/><rect x="255" y="400" width="89" height="26" fill="#2a1f1a"/><path d="M238,400 Q300,384 362,400 L352,394 L248,394 Z" fill="#2a1f1a"/><rect x="275" y="408" width="5" height="9" fill="#e0a03a" opacity=".85"/><rect x="295" y="408" width="5" height="9" fill="#e0a03a" opacity=".85"/><rect x="315" y="408" width="5" height="9" fill="#e0a03a" opacity=".85"/><rect x="262" y="368" width="75" height="26" fill="#2a1f1a"/><path d="M248,368 Q300,352 352,368 L344,362 L256,362 Z" fill="#2a1f1a"/><rect x="279" y="376" width="5" height="9" fill="#e0a03a" opacity=".85"/><rect x="296" y="376" width="5" height="9" fill="#e0a03a" opacity=".85"/><rect x="313" y="376" width="5" height="9" fill="#e0a03a" opacity=".85"/><rect x="268" y="336" width="63" height="26" fill="#2a1f1a"/><path d="M256,336 Q300,320 344,336 L337,330 L263,330 Z" fill="#2a1f1a"/><rect x="282" y="344" width="5" height="9" fill="#e0a03a" opacity=".85"/><rect x="296" y="344" width="5" height="9" fill="#e0a03a" opacity=".85"/><rect x="311" y="344" width="5" height="9" fill="#e0a03a" opacity=".85"/><rect x="298" y="300" width="4" height="34" fill="#2a1f1a"/>
<path d="M-20,800 L-20,599 Q300.0,572 620,602 L620,800 Z" fill="#2a1f1a"/>
<rect x="217" y="640" width="80" height="1.5" fill="#fff" opacity=".05"/>
<rect x="164" y="664" width="148" height="1.5" fill="#fff" opacity=".05"/>
<rect x="178" y="688" width="174" height="1.5" fill="#fff" opacity=".05"/>
<rect x="21" y="712" width="101" height="1.5" fill="#fff" opacity=".05"/>
<rect x="51" y="736" width="93" height="1.5" fill="#fff" opacity=".05"/>
<rect x="383" y="760" width="93" height="1.5" fill="#fff" opacity=".05"/>
<path d="M556,608 q-0.3,-6 -0.7,-12" fill="none" stroke="#2a1f1a" stroke-width="1.8" stroke-linecap="round"/>
<path d="M334,611 q-3.0,-5 -6.0,-10" fill="none" stroke="#2a1f1a" stroke-width="2.3" stroke-linecap="round"/>
<path d="M117,602 q1.3,-8 2.5,-16" fill="none" stroke="#2a1f1a" stroke-width="1.5" stroke-linecap="round"/>
<path d="M523,605 q-1.3,-7 -2.6,-14" fill="none" stroke="#2a1f1a" stroke-width="1.6" stroke-linecap="round"/>
<path d="M314,604 q0.4,-9 0.8,-19" fill="none" stroke="#2a1f1a" stroke-width="2.0" stroke-linecap="round"/>
<path d="M334,614 q-1.4,-6 -2.9,-13" fill="none" stroke="#2a1f1a" stroke-width="2.1" stroke-linecap="round"/>
<path d="M121,602 q-1.6,-4 -3.2,-9" fill="none" stroke="#2a1f1a" stroke-width="2.3" stroke-linecap="round"/>
<path d="M530,612 q2.0,-12 4.0,-23" fill="none" stroke="#2a1f1a" stroke-width="1.5" stroke-linecap="round"/>
<path d="M122,603 q1.7,-11 3.5,-22" fill="none" stroke="#2a1f1a" stroke-width="2.2" stroke-linecap="round"/>
<path d="M509,612 q-0.1,-11 -0.2,-21" fill="none" stroke="#2a1f1a" stroke-width="1.6" stroke-linecap="round"/>
<path d="M145,611 q-1.9,-9 -3.9,-19" fill="none" stroke="#2a1f1a" stroke-width="1.9" stroke-linecap="round"/>
<path d="M218,606 q2.8,-9 5.6,-18" fill="none" stroke="#2a1f1a" stroke-width="1.5" stroke-linecap="round"/>
<path d="M265,607 q0.5,-13 1.1,-26" fill="none" stroke="#2a1f1a" stroke-width="1.7" stroke-linecap="round"/>
<path d="M162,613 q-1.6,-9 -3.3,-18" fill="none" stroke="#2a1f1a" stroke-width="2.2" stroke-linecap="round"/>
<path d="M339,613 q-2.4,-6 -4.9,-11" fill="none" stroke="#2a1f1a" stroke-width="1.3" stroke-linecap="round"/>
<path d="M403,606 q-2.9,-9 -5.8,-19" fill="none" stroke="#2a1f1a" stroke-width="2.4" stroke-linecap="round"/>
<path d="M189,608 q-0.7,-11 -1.5,-22" fill="none" stroke="#2a1f1a" stroke-width="1.8" stroke-linecap="round"/>
<path d="M24,612 q-2.2,-12 -4.4,-24" fill="none" stroke="#2a1f1a" stroke-width="1.2" stroke-linecap="round"/>
<path d="M396,608 q2.4,-9 4.8,-19" fill="none" stroke="#2a1f1a" stroke-width="1.9" stroke-linecap="round"/>
<path d="M476,612 q0.8,-11 1.5,-23" fill="none" stroke="#2a1f1a" stroke-width="1.7" stroke-linecap="round"/>
<path d="M113,611 q2.6,-7 5.3,-14" fill="none" stroke="#2a1f1a" stroke-width="1.7" stroke-linecap="round"/>
<path d="M415,609 q-1.0,-9 -2.1,-18" fill="none" stroke="#2a1f1a" stroke-width="1.4" stroke-linecap="round"/>
<path d="M606,600 q-2.6,-13 -5.2,-25" fill="none" stroke="#2a1f1a" stroke-width="1.5" stroke-linecap="round"/>
<path d="M270,609 q-2.3,-8 -4.5,-17" fill="none" stroke="#2a1f1a" stroke-width="1.9" stroke-linecap="round"/>
<path d="M597,603 q0.6,-11 1.1,-22" fill="none" stroke="#2a1f1a" stroke-width="1.6" stroke-linecap="round"/>
<path d="M195,607 q1.3,-8 2.7,-17" fill="none" stroke="#2a1f1a" stroke-width="1.2" stroke-linecap="round"/>
<path d="M122,612 q-2.9,-8 -5.8,-17" fill="none" stroke="#2a1f1a" stroke-width="1.2" stroke-linecap="round"/>
<path d="M189,612 q2.7,-10 5.5,-20" fill="none" stroke="#2a1f1a" stroke-width="2.3" stroke-linecap="round"/>
<path d="M46,604 q0.6,-10 1.1,-19" fill="none" stroke="#2a1f1a" stroke-width="1.5" stroke-linecap="round"/>
<path d="M165,604 q2.8,-7 5.6,-14" fill="none" stroke="#2a1f1a" stroke-width="2.0" stroke-linecap="round"/>
<path d="M84,601 q-2.0,-12 -4.0,-25" fill="none" stroke="#2a1f1a" stroke-width="2.0" stroke-linecap="round"/>
<path d="M541,611 q1.1,-11 2.2,-21" fill="none" stroke="#2a1f1a" stroke-width="2.0" stroke-linecap="round"/>
<path d="M210,604 q-2.6,-13 -5.2,-25" fill="none" stroke="#2a1f1a" stroke-width="2.4" stroke-linecap="round"/>
<path d="M203,612 q1.6,-11 3.3,-23" fill="none" stroke="#2a1f1a" stroke-width="2.3" stroke-linecap="round"/>
<path d="M159,606 q-0.4,-6 -0.8,-13" fill="none" stroke="#2a1f1a" stroke-width="2.1" stroke-linecap="round"/>
<path d="M355,605 q1.4,-11 2.9,-22" fill="none" stroke="#2a1f1a" stroke-width="1.6" stroke-linecap="round"/>
<path d="M292,613 q-0.1,-4 -0.3,-8" fill="none" stroke="#2a1f1a" stroke-width="2.2" stroke-linecap="round"/>
<path d="M597,604 q2.6,-8 5.3,-16" fill="none" stroke="#2a1f1a" stroke-width="1.9" stroke-linecap="round"/>
<path d="M125,607 q-2.9,-6 -5.9,-12" fill="none" stroke="#2a1f1a" stroke-width="2.1" stroke-linecap="round"/>
<path d="M309,606 q0.3,-5 0.6,-10" fill="none" stroke="#2a1f1a" stroke-width="2.3" stroke-linecap="round"/>
<path d="M182,605 q-1.8,-13 -3.6,-25" fill="none" stroke="#2a1f1a" stroke-width="1.8" stroke-linecap="round"/>
<path d="M435,607 q-0.1,-5 -0.2,-10" fill="none" stroke="#2a1f1a" stroke-width="2.1" stroke-linecap="round"/>
<path d="M15,608 q2.6,-12 5.2,-24" fill="none" stroke="#2a1f1a" stroke-width="1.4" stroke-linecap="round"/>
<path d="M225,607 q2.6,-5 5.3,-9" fill="none" stroke="#2a1f1a" stroke-width="1.4" stroke-linecap="round"/>
<path d="M476,604 q-1.0,-5 -2.0,-11" fill="none" stroke="#2a1f1a" stroke-width="2.1" stroke-linecap="round"/>
<path d="M196,606 q3.0,-10 5.9,-20" fill="none" stroke="#2a1f1a" stroke-width="1.9" stroke-linecap="round"/>
<path d="M252,604 q-1.5,-9 -2.9,-18" fill="none" stroke="#2a1f1a" stroke-width="1.7" stroke-linecap="round"/>
<path d="M605,604 q0.0,-5 0.1,-9" fill="none" stroke="#2a1f1a" stroke-width="1.7" stroke-linecap="round"/>
<path d="M492,601 q2.4,-12 4.7,-24" fill="none" stroke="#2a1f1a" stroke-width="1.9" stroke-linecap="round"/>
<path d="M488,614 q-1.6,-4 -3.3,-8" fill="none" stroke="#2a1f1a" stroke-width="1.5" stroke-linecap="round"/>
<path d="M404,604 q-2.9,-12 -5.8,-23" fill="none" stroke="#2a1f1a" stroke-width="1.8" stroke-linecap="round"/>
<path d="M121,604 q0.7,-9 1.5,-17" fill="none" stroke="#2a1f1a" stroke-width="2.0" stroke-linecap="round"/>
<path d="M178,610 q-1.6,-7 -3.3,-14" fill="none" stroke="#2a1f1a" stroke-width="2.2" stroke-linecap="round"/>
<path d="M262,608 q0.4,-12 0.8,-23" fill="none" stroke="#2a1f1a" stroke-width="2.1" stroke-linecap="round"/>
<path d="M407,611 q1.3,-5 2.7,-10" fill="none" stroke="#2a1f1a" stroke-width="1.8" stroke-linecap="round"/>
<path d="M424,600 q0.4,-10 0.9,-20" fill="none" stroke="#2a1f1a" stroke-width="1.5" stroke-linecap="round"/>
<path d="M408,610 q-3.0,-11 -5.9,-23" fill="none" stroke="#2a1f1a" stroke-width="1.6" stroke-linecap="round"/>
<path d="M1,609 q2.3,-9 4.7,-19" fill="none" stroke="#2a1f1a" stroke-width="2.4" stroke-linecap="round"/>
<path d="M399,612 q0.6,-5 1.2,-10" fill="none" stroke="#2a1f1a" stroke-width="2.0" stroke-linecap="round"/>
<path d="M335,602 q-0.3,-12 -0.5,-23" fill="none" stroke="#2a1f1a" stroke-width="1.2" stroke-linecap="round"/>
<path d="M573,606 q1.9,-13 3.8,-26" fill="none" stroke="#2a1f1a" stroke-width="1.3" stroke-linecap="round"/>
<path d="M469,610 q1.3,-4 2.6,-9" fill="none" stroke="#2a1f1a" stroke-width="1.5" stroke-linecap="round"/>
<path d="M230,611 q-2.6,-7 -5.3,-13" fill="none" stroke="#2a1f1a" stroke-width="2.0" stroke-linecap="round"/>
<path d="M-8,606 q-1.4,-13 -2.8,-25" fill="none" stroke="#2a1f1a" stroke-width="1.2" stroke-linecap="round"/>
<path d="M377,607 q2.4,-6 4.9,-12" fill="none" stroke="#2a1f1a" stroke-width="2.1" stroke-linecap="round"/>
<path d="M470,608 q-0.4,-7 -0.9,-13" fill="none" stroke="#2a1f1a" stroke-width="1.8" stroke-linecap="round"/>
<path d="M268,602 q2.0,-8 4.0,-15" fill="none" stroke="#2a1f1a" stroke-width="1.3" stroke-linecap="round"/>
<path d="M207,601 q0.1,-8 0.3,-15" fill="none" stroke="#2a1f1a" stroke-width="2.3" stroke-linecap="round"/>
<path d="M51,607 q-0.8,-6 -1.5,-12" fill="none" stroke="#2a1f1a" stroke-width="1.5" stroke-linecap="round"/>
<path d="M434,601 q-1.5,-5 -3.0,-10" fill="none" stroke="#2a1f1a" stroke-width="1.4" stroke-linecap="round"/>
<rect width="600" height="800" fill="url(#vg)"/>
<rect width="600" height="800" filter="url(#gr)" opacity=".9"/></svg>